%TF.GenerationSoftware,KiCad,Pcbnew,(6.0.2)*%
%TF.CreationDate,2022-03-04T15:26:31-05:00*%
%TF.ProjectId,Amiga500 Mod PCB Rev A,416d6967-6135-4303-9020-4d6f64205043,rev?*%
%TF.SameCoordinates,Original*%
%TF.FileFunction,Soldermask,Top*%
%TF.FilePolarity,Negative*%
%FSLAX46Y46*%
G04 Gerber Fmt 4.6, Leading zero omitted, Abs format (unit mm)*
G04 Created by KiCad (PCBNEW (6.0.2)) date 2022-03-04 15:26:31*
%MOMM*%
%LPD*%
G01*
G04 APERTURE LIST*
G04 Aperture macros list*
%AMRoundRect*
0 Rectangle with rounded corners*
0 $1 Rounding radius*
0 $2 $3 $4 $5 $6 $7 $8 $9 X,Y pos of 4 corners*
0 Add a 4 corners polygon primitive as box body*
4,1,4,$2,$3,$4,$5,$6,$7,$8,$9,$2,$3,0*
0 Add four circle primitives for the rounded corners*
1,1,$1+$1,$2,$3*
1,1,$1+$1,$4,$5*
1,1,$1+$1,$6,$7*
1,1,$1+$1,$8,$9*
0 Add four rect primitives between the rounded corners*
20,1,$1+$1,$2,$3,$4,$5,0*
20,1,$1+$1,$4,$5,$6,$7,0*
20,1,$1+$1,$6,$7,$8,$9,0*
20,1,$1+$1,$8,$9,$2,$3,0*%
G04 Aperture macros list end*
%ADD10C,1.600000*%
%ADD11R,1.200000X1.400000*%
%ADD12C,1.500000*%
%ADD13R,0.280000X1.500000*%
%ADD14C,1.900000*%
%ADD15C,3.048000*%
%ADD16R,1.700000X1.700000*%
%ADD17O,1.700000X1.700000*%
%ADD18RoundRect,0.508000X1.397000X0.508000X-1.397000X0.508000X-1.397000X-0.508000X1.397000X-0.508000X0*%
%ADD19RoundRect,0.508000X-0.508000X1.117600X-0.508000X-1.117600X0.508000X-1.117600X0.508000X1.117600X0*%
%ADD20O,1.450000X2.900000*%
G04 APERTURE END LIST*
D10*
%TO.C,SW2*%
X106506000Y-59182000D03*
X114506000Y-59182000D03*
D11*
X115506000Y-61382000D03*
X113506000Y-56982000D03*
X109506000Y-56982000D03*
X107506000Y-61382000D03*
%TD*%
D12*
%TO.C,FID1*%
X69850000Y-73660000D03*
%TD*%
D13*
%TO.C,J1*%
X79570000Y-66035000D03*
X80070000Y-66035000D03*
X80570000Y-66035000D03*
X81070000Y-66035000D03*
X81570000Y-66035000D03*
X82070000Y-66035000D03*
X82570000Y-66035000D03*
X83070000Y-66035000D03*
X83570000Y-66035000D03*
X84070000Y-66035000D03*
X84570000Y-66035000D03*
X85070000Y-66035000D03*
X85570000Y-66035000D03*
X86070000Y-66035000D03*
X86570000Y-66035000D03*
X87070000Y-66035000D03*
X87570000Y-66035000D03*
X88070000Y-66035000D03*
X88570000Y-66035000D03*
D14*
X76570000Y-65335000D03*
X75970000Y-59435000D03*
X91670000Y-59435000D03*
X91070000Y-65335000D03*
%TD*%
D15*
%TO.C,J7*%
X134366000Y-59097700D03*
X129286000Y-59097700D03*
X129286000Y-64533300D03*
X134366000Y-64533300D03*
%TD*%
%TO.C,J6*%
X72644000Y-59097700D03*
X67564000Y-59097700D03*
X67564000Y-64533300D03*
X72644000Y-64533300D03*
%TD*%
D16*
%TO.C,J3*%
X100589004Y-72136000D03*
D17*
X98049000Y-72136000D03*
%TD*%
D18*
%TO.C,SW1*%
X102997000Y-65562000D03*
X95631000Y-65562000D03*
D19*
X101092000Y-57942000D03*
X97536000Y-57942000D03*
%TD*%
D16*
%TO.C,J5*%
X130038000Y-72136000D03*
D17*
X127498000Y-72136000D03*
X124958000Y-72136000D03*
X122418000Y-72136000D03*
%TD*%
D11*
%TO.C,SW3*%
X125436000Y-56982000D03*
X122936000Y-56982000D03*
X120436000Y-56982000D03*
X125436000Y-61382000D03*
X122936000Y-61382000D03*
X120436000Y-61382000D03*
%TD*%
D16*
%TO.C,J4*%
X115306000Y-72136000D03*
D17*
X112766000Y-72136000D03*
X110226000Y-72136000D03*
X107686000Y-72136000D03*
%TD*%
D20*
%TO.C,J2*%
X89245000Y-77470000D03*
X78395000Y-77470000D03*
%TD*%
M02*
