%TF.GenerationSoftware,KiCad,Pcbnew,(6.0.2)*%
%TF.CreationDate,2022-03-04T15:26:31-05:00*%
%TF.ProjectId,Amiga500 Mod PCB Rev A,416d6967-6135-4303-9020-4d6f64205043,rev?*%
%TF.SameCoordinates,Original*%
%TF.FileFunction,Copper,L4,Bot*%
%TF.FilePolarity,Positive*%
%FSLAX46Y46*%
G04 Gerber Fmt 4.6, Leading zero omitted, Abs format (unit mm)*
G04 Created by KiCad (PCBNEW (6.0.2)) date 2022-03-04 15:26:31*
%MOMM*%
%LPD*%
G01*
G04 APERTURE LIST*
%TA.AperFunction,ComponentPad*%
%ADD10C,1.600000*%
%TD*%
%TA.AperFunction,ComponentPad*%
%ADD11C,1.900000*%
%TD*%
%TA.AperFunction,ComponentPad*%
%ADD12C,3.048000*%
%TD*%
%TA.AperFunction,ComponentPad*%
%ADD13R,1.700000X1.700000*%
%TD*%
%TA.AperFunction,ComponentPad*%
%ADD14O,1.700000X1.700000*%
%TD*%
%TA.AperFunction,SMDPad,CuDef*%
%ADD15R,0.220000X1.250000*%
%TD*%
%TA.AperFunction,SMDPad,CuDef*%
%ADD16R,2.100000X2.300000*%
%TD*%
%TA.AperFunction,ComponentPad*%
%ADD17O,1.450000X2.900000*%
%TD*%
%TA.AperFunction,ViaPad*%
%ADD18C,0.609600*%
%TD*%
%TA.AperFunction,Conductor*%
%ADD19C,0.203200*%
%TD*%
%TA.AperFunction,Conductor*%
%ADD20C,0.200000*%
%TD*%
G04 APERTURE END LIST*
D10*
%TO.P,SW2,6*%
%TO.N,N/C*%
X106506000Y-59182000D03*
%TO.P,SW2,5*%
X114506000Y-59182000D03*
%TD*%
D11*
%TO.P,J1,S1,S1*%
%TO.N,GNDREF*%
X76570000Y-65335000D03*
%TO.P,J1,S2,S2*%
X75970000Y-59435000D03*
%TO.P,J1,S3,S3*%
X91670000Y-59435000D03*
%TO.P,J1,S4,S4*%
X91070000Y-65335000D03*
%TD*%
D12*
%TO.P,J7,1,Pin_1*%
%TO.N,unconnected-(J7-Pad1)*%
X134366000Y-59097700D03*
%TO.P,J7,2,Pin_2*%
%TO.N,unconnected-(J7-Pad2)*%
X129286000Y-59097700D03*
%TO.P,J7,3,Pin_3*%
%TO.N,unconnected-(J7-Pad3)*%
X129286000Y-64533300D03*
%TO.P,J7,4,Pin_4*%
%TO.N,unconnected-(J7-Pad4)*%
X134366000Y-64533300D03*
%TD*%
%TO.P,J6,1,Pin_1*%
%TO.N,unconnected-(J6-Pad1)*%
X72644000Y-59097700D03*
%TO.P,J6,2,Pin_2*%
%TO.N,unconnected-(J6-Pad2)*%
X67564000Y-59097700D03*
%TO.P,J6,3,Pin_3*%
%TO.N,unconnected-(J6-Pad3)*%
X67564000Y-64533300D03*
%TO.P,J6,4,Pin_4*%
%TO.N,unconnected-(J6-Pad4)*%
X72644000Y-64533300D03*
%TD*%
D13*
%TO.P,J3,1,Pin_1*%
%TO.N,Net-(J3-Pad1)*%
X100589004Y-72136000D03*
D14*
%TO.P,J3,2,Pin_2*%
%TO.N,Net-(J3-Pad2)*%
X98049000Y-72136000D03*
%TD*%
D13*
%TO.P,J5,1,Pin_1*%
%TO.N,Net-(J5-Pad1)*%
X130038000Y-72136000D03*
D14*
%TO.P,J5,2,Pin_2*%
%TO.N,Net-(J5-Pad2)*%
X127498000Y-72136000D03*
%TO.P,J5,3,Pin_3*%
%TO.N,Net-(J5-Pad3)*%
X124958000Y-72136000D03*
%TO.P,J5,4,Pin_4*%
%TO.N,Net-(J5-Pad4)*%
X122418000Y-72136000D03*
%TD*%
D13*
%TO.P,J4,1,Pin_1*%
%TO.N,Net-(J4-Pad1)*%
X115306000Y-72136000D03*
D14*
%TO.P,J4,2,Pin_2*%
%TO.N,Net-(J4-Pad2)*%
X112766000Y-72136000D03*
%TO.P,J4,3,Pin_3*%
%TO.N,Net-(J4-Pad3)*%
X110226000Y-72136000D03*
%TO.P,J4,4,Pin_4*%
%TO.N,Net-(J4-Pad4)*%
X107686000Y-72136000D03*
%TD*%
D15*
%TO.P,J2,1,1*%
%TO.N,/TMDS Data2 shield*%
X80135000Y-73095000D03*
%TO.P,J2,2,2*%
%TO.N,/TMDS_Data2+*%
X80535000Y-73095000D03*
%TO.P,J2,3,3*%
%TO.N,/TMDS_Data2-*%
X80935000Y-73095000D03*
%TO.P,J2,4,4*%
%TO.N,/TMDS Data1 shield*%
X81335000Y-73095000D03*
%TO.P,J2,5,5*%
%TO.N,/TMDS Data1+*%
X81735000Y-73095000D03*
%TO.P,J2,6,6*%
%TO.N,/TMDS Data1-*%
X82135000Y-73095000D03*
%TO.P,J2,7,7*%
%TO.N,/TMDS Data0 shield*%
X82535000Y-73095000D03*
%TO.P,J2,8,8*%
%TO.N,/TMDS Data0+*%
X82935000Y-73095000D03*
%TO.P,J2,9,9*%
%TO.N,/TMDS Data0-*%
X83335000Y-73095000D03*
%TO.P,J2,10,10*%
%TO.N,/TMDS Clock shield*%
X83735000Y-73095000D03*
%TO.P,J2,11,11*%
%TO.N,/TMDS Clock+*%
X84135000Y-73095000D03*
%TO.P,J2,12,12*%
%TO.N,/TMDS Clock-*%
X84535000Y-73095000D03*
%TO.P,J2,13,13*%
%TO.N,/CEC Ground*%
X84935000Y-73095000D03*
%TO.P,J2,14,14*%
%TO.N,/CEC*%
X85335000Y-73095000D03*
%TO.P,J2,15,15*%
%TO.N,/SCL*%
X85735000Y-73095000D03*
%TO.P,J2,16,16*%
%TO.N,/SDA*%
X86135000Y-73095000D03*
%TO.P,J2,17,17*%
%TO.N,/HEAC+*%
X86535000Y-73095000D03*
%TO.P,J2,18,18*%
%TO.N,/+5V Power*%
X86935000Y-73095000D03*
%TO.P,J2,19,19*%
%TO.N,/Plug Detect*%
X87335000Y-73095000D03*
D16*
%TO.P,J2,S1,SHIELD*%
%TO.N,GNDREF*%
X89770000Y-73520000D03*
%TO.P,J2,S2,SHIELD*%
X77870000Y-73520000D03*
D17*
%TO.P,J2,S3,SHIELD*%
X89245000Y-77470000D03*
%TO.P,J2,S4,SHIELD*%
X78395000Y-77470000D03*
%TD*%
D18*
%TO.N,Net-(J5-Pad4)*%
X125425200Y-60071000D03*
X121412000Y-58039000D03*
X125476000Y-67310000D03*
%TO.N,Net-(J5-Pad1)*%
X122936000Y-58039000D03*
%TO.N,/Plug Detect*%
X87986678Y-71984678D03*
%TO.N,/+5V Power*%
X86944200Y-74218800D03*
%TO.N,/HEAC+*%
X86741000Y-71983600D03*
%TO.N,/SDA*%
X87122000Y-71196200D03*
%TO.N,/SCL*%
X86690200Y-70510400D03*
%TO.N,/CEC*%
X85115400Y-71932800D03*
%TO.N,/CEC Ground*%
X85318600Y-74218800D03*
X87579189Y-67265782D03*
%TO.N,/TMDS Clock-*%
X84709000Y-70688200D03*
%TO.N,/TMDS Clock+*%
X83921600Y-71932800D03*
%TO.N,/TMDS Clock shield*%
X84124800Y-74218800D03*
X84556600Y-64973200D03*
%TO.N,/TMDS Data0-*%
X83134200Y-70713600D03*
%TO.N,/TMDS Data0+*%
X82727800Y-71932800D03*
%TO.N,/TMDS Data0 shield*%
X82931000Y-74218800D03*
X83058000Y-64973200D03*
%TO.N,/TMDS Data1-*%
X81915000Y-70739000D03*
%TO.N,/TMDS Data1+*%
X81534000Y-71932800D03*
%TO.N,/TMDS Data1 shield*%
X81737200Y-74218800D03*
X81559400Y-64947800D03*
%TO.N,/TMDS Data2 shield*%
X80518000Y-74218800D03*
X80060800Y-64947800D03*
%TO.N,/TMDS_Data2+*%
X80340200Y-71932800D03*
%TO.N,/TMDS_Data2-*%
X80441800Y-70713600D03*
%TD*%
D19*
%TO.N,/+5V Power*%
X86935000Y-74209600D02*
X86935000Y-73095000D01*
X86944200Y-74218800D02*
X86935000Y-74209600D01*
%TO.N,/CEC Ground*%
X84935000Y-73835200D02*
X84935000Y-73095000D01*
X85318600Y-74218800D02*
X84935000Y-73835200D01*
%TO.N,/TMDS Clock shield*%
X83735000Y-73829000D02*
X83735000Y-73095000D01*
X84124800Y-74218800D02*
X83735000Y-73829000D01*
%TO.N,/TMDS Data0 shield*%
X82535000Y-73822800D02*
X82535000Y-73095000D01*
X82931000Y-74218800D02*
X82535000Y-73822800D01*
%TO.N,/TMDS Data1 shield*%
X81335000Y-73816600D02*
X81335000Y-73095000D01*
X81737200Y-74218800D02*
X81335000Y-73816600D01*
%TO.N,/TMDS Data2 shield*%
X80135000Y-73835800D02*
X80135000Y-73095000D01*
X80518000Y-74218800D02*
X80135000Y-73835800D01*
%TO.N,Net-(J5-Pad4)*%
X125425200Y-60071000D02*
X123444000Y-60071000D01*
X123444000Y-60071000D02*
X121412000Y-58039000D01*
%TO.N,/Plug Detect*%
X87986678Y-71984678D02*
X87755922Y-71984678D01*
X87755922Y-71984678D02*
X87335000Y-72405600D01*
X87335000Y-72405600D02*
X87335000Y-73095000D01*
%TO.N,/SCL*%
X86690200Y-70510400D02*
X85735000Y-71465600D01*
X85735000Y-71465600D02*
X85735000Y-73095000D01*
%TO.N,/HEAC+*%
X86535000Y-72189600D02*
X86535000Y-73095000D01*
X86741000Y-71983600D02*
X86535000Y-72189600D01*
%TO.N,/SDA*%
X86135000Y-71749228D02*
X86135000Y-73095000D01*
X87122000Y-71196200D02*
X86688028Y-71196200D01*
X86688028Y-71196200D02*
X86135000Y-71749228D01*
%TO.N,/CEC*%
X85335000Y-72152400D02*
X85115400Y-71932800D01*
X85335000Y-73095000D02*
X85335000Y-72152400D01*
D20*
%TO.N,/TMDS Clock-*%
X84535000Y-70862200D02*
X84535000Y-73095000D01*
X84709000Y-70688200D02*
X84535000Y-70862200D01*
%TO.N,/TMDS Clock+*%
X84135000Y-72146200D02*
X83921600Y-71932800D01*
X84135000Y-73095000D02*
X84135000Y-72146200D01*
D19*
%TO.N,/TMDS_Data2+*%
X80340200Y-71932800D02*
X80535000Y-72127600D01*
X80535000Y-72127600D02*
X80535000Y-73095000D01*
%TO.N,/TMDS_Data2-*%
X80935000Y-71206800D02*
X80935000Y-73095000D01*
X80441800Y-70713600D02*
X80935000Y-71206800D01*
D20*
%TO.N,/TMDS Data1-*%
X81915000Y-70739000D02*
X82135000Y-70959000D01*
X82135000Y-70959000D02*
X82135000Y-73095000D01*
%TO.N,/TMDS Data0-*%
X83335000Y-70914400D02*
X83134200Y-70713600D01*
X83335000Y-73095000D02*
X83335000Y-70914400D01*
%TO.N,/TMDS Data0+*%
X82935000Y-72140000D02*
X82727800Y-71932800D01*
X82935000Y-73095000D02*
X82935000Y-72140000D01*
%TO.N,/TMDS Data1+*%
X81735000Y-72133800D02*
X81735000Y-73095000D01*
X81534000Y-71932800D02*
X81735000Y-72133800D01*
%TD*%
%TA.AperFunction,Conductor*%
%TO.N,GNDREF*%
G36*
X92922531Y-56407213D02*
G01*
X92959076Y-56457513D01*
X92964000Y-56488600D01*
X92964000Y-58787104D01*
X92944787Y-58846235D01*
X92894487Y-58882780D01*
X92832313Y-58882780D01*
X92782013Y-58846235D01*
X92772226Y-58829620D01*
X92762699Y-58809190D01*
X92758321Y-58801607D01*
X92668865Y-58673850D01*
X92658043Y-58665695D01*
X92657401Y-58665683D01*
X92650991Y-58669535D01*
X91896794Y-59423732D01*
X91890639Y-59435811D01*
X91891449Y-59440923D01*
X92648459Y-60197933D01*
X92660538Y-60204088D01*
X92661170Y-60203988D01*
X92666811Y-60199084D01*
X92758321Y-60068393D01*
X92762699Y-60060810D01*
X92772226Y-60040380D01*
X92814628Y-59994909D01*
X92875660Y-59983046D01*
X92932009Y-60009322D01*
X92962152Y-60063701D01*
X92964000Y-60082896D01*
X92964000Y-80163400D01*
X92944787Y-80222531D01*
X92894487Y-80259076D01*
X92863400Y-80264000D01*
X74776600Y-80264000D01*
X74717469Y-80244787D01*
X74680924Y-80194487D01*
X74676000Y-80163400D01*
X74676000Y-78243362D01*
X77365200Y-78243362D01*
X77365440Y-78248267D01*
X77379444Y-78391098D01*
X77381346Y-78400698D01*
X77436870Y-78584606D01*
X77440609Y-78593677D01*
X77530796Y-78763294D01*
X77536215Y-78771451D01*
X77657641Y-78920334D01*
X77664536Y-78927278D01*
X77812569Y-79049740D01*
X77820681Y-79055212D01*
X77989682Y-79146591D01*
X77998702Y-79150382D01*
X78182229Y-79207193D01*
X78191820Y-79209162D01*
X78226753Y-79212834D01*
X78240013Y-79210015D01*
X78241705Y-79208136D01*
X78242600Y-79203924D01*
X78242600Y-79199298D01*
X78547400Y-79199298D01*
X78551588Y-79212188D01*
X78553941Y-79213897D01*
X78557576Y-79214305D01*
X78583999Y-79211900D01*
X78593619Y-79210065D01*
X78777918Y-79155823D01*
X78786995Y-79152156D01*
X78957251Y-79063147D01*
X78965441Y-79057788D01*
X79115167Y-78937406D01*
X79122163Y-78930554D01*
X79245646Y-78783392D01*
X79251186Y-78775302D01*
X79343734Y-78606958D01*
X79347595Y-78597951D01*
X79405683Y-78414835D01*
X79407720Y-78405250D01*
X79424487Y-78255766D01*
X79424800Y-78250164D01*
X79424800Y-78243362D01*
X88215200Y-78243362D01*
X88215440Y-78248267D01*
X88229444Y-78391098D01*
X88231346Y-78400698D01*
X88286870Y-78584606D01*
X88290609Y-78593677D01*
X88380796Y-78763294D01*
X88386215Y-78771451D01*
X88507641Y-78920334D01*
X88514536Y-78927278D01*
X88662569Y-79049740D01*
X88670681Y-79055212D01*
X88839682Y-79146591D01*
X88848702Y-79150382D01*
X89032229Y-79207193D01*
X89041820Y-79209162D01*
X89076753Y-79212834D01*
X89090013Y-79210015D01*
X89091705Y-79208136D01*
X89092600Y-79203924D01*
X89092600Y-79199298D01*
X89397400Y-79199298D01*
X89401588Y-79212188D01*
X89403941Y-79213897D01*
X89407576Y-79214305D01*
X89433999Y-79211900D01*
X89443619Y-79210065D01*
X89627918Y-79155823D01*
X89636995Y-79152156D01*
X89807251Y-79063147D01*
X89815441Y-79057788D01*
X89965167Y-78937406D01*
X89972163Y-78930554D01*
X90095646Y-78783392D01*
X90101186Y-78775302D01*
X90193734Y-78606958D01*
X90197595Y-78597951D01*
X90255683Y-78414835D01*
X90257720Y-78405250D01*
X90274487Y-78255766D01*
X90274800Y-78250164D01*
X90274800Y-77638333D01*
X90270612Y-77625443D01*
X90266423Y-77622400D01*
X89413333Y-77622400D01*
X89400443Y-77626588D01*
X89397400Y-77630777D01*
X89397400Y-79199298D01*
X89092600Y-79199298D01*
X89092600Y-77638333D01*
X89088412Y-77625443D01*
X89084223Y-77622400D01*
X88231133Y-77622400D01*
X88218243Y-77626588D01*
X88215200Y-77630777D01*
X88215200Y-78243362D01*
X79424800Y-78243362D01*
X79424800Y-77638333D01*
X79420612Y-77625443D01*
X79416423Y-77622400D01*
X78563333Y-77622400D01*
X78550443Y-77626588D01*
X78547400Y-77630777D01*
X78547400Y-79199298D01*
X78242600Y-79199298D01*
X78242600Y-77638333D01*
X78238412Y-77625443D01*
X78234223Y-77622400D01*
X77381133Y-77622400D01*
X77368243Y-77626588D01*
X77365200Y-77630777D01*
X77365200Y-78243362D01*
X74676000Y-78243362D01*
X74676000Y-77301667D01*
X77365200Y-77301667D01*
X77369388Y-77314557D01*
X77373577Y-77317600D01*
X78226667Y-77317600D01*
X78239557Y-77313412D01*
X78242600Y-77309223D01*
X78242600Y-77301667D01*
X78547400Y-77301667D01*
X78551588Y-77314557D01*
X78555777Y-77317600D01*
X79408867Y-77317600D01*
X79421757Y-77313412D01*
X79424800Y-77309223D01*
X79424800Y-77301667D01*
X88215200Y-77301667D01*
X88219388Y-77314557D01*
X88223577Y-77317600D01*
X89076667Y-77317600D01*
X89089557Y-77313412D01*
X89092600Y-77309223D01*
X89092600Y-77301667D01*
X89397400Y-77301667D01*
X89401588Y-77314557D01*
X89405777Y-77317600D01*
X90258867Y-77317600D01*
X90271757Y-77313412D01*
X90274800Y-77309223D01*
X90274800Y-76696638D01*
X90274560Y-76691733D01*
X90260556Y-76548902D01*
X90258654Y-76539302D01*
X90203130Y-76355394D01*
X90199391Y-76346323D01*
X90109204Y-76176706D01*
X90103785Y-76168549D01*
X89982359Y-76019666D01*
X89975464Y-76012722D01*
X89827431Y-75890260D01*
X89819319Y-75884788D01*
X89650318Y-75793409D01*
X89641298Y-75789618D01*
X89457771Y-75732807D01*
X89448180Y-75730838D01*
X89413247Y-75727166D01*
X89399987Y-75729985D01*
X89398295Y-75731864D01*
X89397400Y-75736076D01*
X89397400Y-77301667D01*
X89092600Y-77301667D01*
X89092600Y-75740702D01*
X89088412Y-75727812D01*
X89086059Y-75726103D01*
X89082424Y-75725695D01*
X89056001Y-75728100D01*
X89046381Y-75729935D01*
X88862082Y-75784177D01*
X88853005Y-75787844D01*
X88682749Y-75876853D01*
X88674559Y-75882212D01*
X88524833Y-76002594D01*
X88517837Y-76009446D01*
X88394354Y-76156608D01*
X88388814Y-76164698D01*
X88296266Y-76333042D01*
X88292405Y-76342049D01*
X88234317Y-76525165D01*
X88232280Y-76534750D01*
X88215513Y-76684234D01*
X88215200Y-76689836D01*
X88215200Y-77301667D01*
X79424800Y-77301667D01*
X79424800Y-76696638D01*
X79424560Y-76691733D01*
X79410556Y-76548902D01*
X79408654Y-76539302D01*
X79353130Y-76355394D01*
X79349391Y-76346323D01*
X79259204Y-76176706D01*
X79253785Y-76168549D01*
X79132359Y-76019666D01*
X79125464Y-76012722D01*
X78977431Y-75890260D01*
X78969319Y-75884788D01*
X78800318Y-75793409D01*
X78791298Y-75789618D01*
X78607771Y-75732807D01*
X78598180Y-75730838D01*
X78563247Y-75727166D01*
X78549987Y-75729985D01*
X78548295Y-75731864D01*
X78547400Y-75736076D01*
X78547400Y-77301667D01*
X78242600Y-77301667D01*
X78242600Y-75740702D01*
X78238412Y-75727812D01*
X78236059Y-75726103D01*
X78232424Y-75725695D01*
X78206001Y-75728100D01*
X78196381Y-75729935D01*
X78012082Y-75784177D01*
X78003005Y-75787844D01*
X77832749Y-75876853D01*
X77824559Y-75882212D01*
X77674833Y-76002594D01*
X77667837Y-76009446D01*
X77544354Y-76156608D01*
X77538814Y-76164698D01*
X77446266Y-76333042D01*
X77442405Y-76342049D01*
X77384317Y-76525165D01*
X77382280Y-76534750D01*
X77365513Y-76684234D01*
X77365200Y-76689836D01*
X77365200Y-77301667D01*
X74676000Y-77301667D01*
X74676000Y-74712297D01*
X76515200Y-74712297D01*
X76515553Y-74718257D01*
X76517470Y-74734361D01*
X76521428Y-74748762D01*
X76560684Y-74837141D01*
X76571028Y-74852193D01*
X76638241Y-74919289D01*
X76653312Y-74929607D01*
X76741747Y-74968704D01*
X76756179Y-74972639D01*
X76771805Y-74974461D01*
X76777642Y-74974800D01*
X77701667Y-74974800D01*
X77714557Y-74970612D01*
X77717600Y-74966423D01*
X77717600Y-74958867D01*
X78022400Y-74958867D01*
X78026588Y-74971757D01*
X78030777Y-74974800D01*
X78962297Y-74974800D01*
X78968257Y-74974447D01*
X78984361Y-74972530D01*
X78998762Y-74968572D01*
X79087141Y-74929316D01*
X79102193Y-74918972D01*
X79169289Y-74851759D01*
X79179607Y-74836688D01*
X79218704Y-74748253D01*
X79222639Y-74733821D01*
X79224461Y-74718195D01*
X79224800Y-74712358D01*
X79224800Y-73752024D01*
X79618100Y-73752024D01*
X79622372Y-73778998D01*
X79622965Y-73794428D01*
X79622926Y-73794600D01*
X79623045Y-73796514D01*
X79626307Y-73849098D01*
X79626500Y-73855327D01*
X79626500Y-73872313D01*
X79627008Y-73875860D01*
X79627008Y-73875862D01*
X79628127Y-73883674D01*
X79628949Y-73891699D01*
X79631945Y-73939977D01*
X79634378Y-73946715D01*
X79634378Y-73946717D01*
X79635482Y-73949774D01*
X79640443Y-73969672D01*
X79641920Y-73979987D01*
X79644888Y-73986514D01*
X79661938Y-74024013D01*
X79664981Y-74031489D01*
X79681404Y-74076981D01*
X79685631Y-74082768D01*
X79685632Y-74082769D01*
X79687552Y-74085398D01*
X79697896Y-74103099D01*
X79699241Y-74106058D01*
X79699243Y-74106061D01*
X79702208Y-74112582D01*
X79706885Y-74118010D01*
X79733785Y-74149230D01*
X79738800Y-74155546D01*
X79747425Y-74167352D01*
X79759071Y-74178998D01*
X79764136Y-74184453D01*
X79782790Y-74206102D01*
X79806570Y-74260729D01*
X79819349Y-74376477D01*
X79820015Y-74382511D01*
X79822097Y-74388201D01*
X79822098Y-74388204D01*
X79825810Y-74398346D01*
X79879213Y-74544278D01*
X79975290Y-74687255D01*
X80102698Y-74803187D01*
X80254082Y-74885382D01*
X80259952Y-74886922D01*
X80414835Y-74927555D01*
X80414836Y-74927555D01*
X80420702Y-74929094D01*
X80504278Y-74930407D01*
X80586876Y-74931705D01*
X80586878Y-74931705D01*
X80592939Y-74931800D01*
X80598850Y-74930446D01*
X80598852Y-74930446D01*
X80754940Y-74894697D01*
X80754943Y-74894696D01*
X80760850Y-74893343D01*
X80914741Y-74815944D01*
X80919353Y-74812005D01*
X80919356Y-74812003D01*
X81041116Y-74708010D01*
X81045728Y-74704071D01*
X81049266Y-74699147D01*
X81053374Y-74694680D01*
X81055554Y-74696685D01*
X81096134Y-74666920D01*
X81158307Y-74666638D01*
X81195360Y-74688047D01*
X81317414Y-74799107D01*
X81321898Y-74803187D01*
X81473282Y-74885382D01*
X81479152Y-74886922D01*
X81634035Y-74927555D01*
X81634036Y-74927555D01*
X81639902Y-74929094D01*
X81723478Y-74930407D01*
X81806076Y-74931705D01*
X81806078Y-74931705D01*
X81812139Y-74931800D01*
X81818050Y-74930446D01*
X81818052Y-74930446D01*
X81974140Y-74894697D01*
X81974143Y-74894696D01*
X81980050Y-74893343D01*
X82133941Y-74815944D01*
X82138553Y-74812005D01*
X82138556Y-74812003D01*
X82213197Y-74748253D01*
X82264928Y-74704071D01*
X82265412Y-74704638D01*
X82315439Y-74676453D01*
X82377201Y-74683602D01*
X82403024Y-74700662D01*
X82511214Y-74799107D01*
X82515698Y-74803187D01*
X82667082Y-74885382D01*
X82672952Y-74886922D01*
X82827835Y-74927555D01*
X82827836Y-74927555D01*
X82833702Y-74929094D01*
X82917278Y-74930407D01*
X82999876Y-74931705D01*
X82999878Y-74931705D01*
X83005939Y-74931800D01*
X83011850Y-74930446D01*
X83011852Y-74930446D01*
X83167940Y-74894697D01*
X83167943Y-74894696D01*
X83173850Y-74893343D01*
X83327741Y-74815944D01*
X83332353Y-74812005D01*
X83332356Y-74812003D01*
X83406997Y-74748253D01*
X83458728Y-74704071D01*
X83459212Y-74704638D01*
X83509239Y-74676453D01*
X83571001Y-74683602D01*
X83596824Y-74700662D01*
X83705014Y-74799107D01*
X83709498Y-74803187D01*
X83860882Y-74885382D01*
X83866752Y-74886922D01*
X84021635Y-74927555D01*
X84021636Y-74927555D01*
X84027502Y-74929094D01*
X84111078Y-74930407D01*
X84193676Y-74931705D01*
X84193678Y-74931705D01*
X84199739Y-74931800D01*
X84205650Y-74930446D01*
X84205652Y-74930446D01*
X84361740Y-74894697D01*
X84361743Y-74894696D01*
X84367650Y-74893343D01*
X84521541Y-74815944D01*
X84526153Y-74812005D01*
X84526156Y-74812003D01*
X84600797Y-74748253D01*
X84652528Y-74704071D01*
X84653012Y-74704638D01*
X84703039Y-74676453D01*
X84764801Y-74683602D01*
X84790624Y-74700662D01*
X84898814Y-74799107D01*
X84903298Y-74803187D01*
X85054682Y-74885382D01*
X85060552Y-74886922D01*
X85215435Y-74927555D01*
X85215436Y-74927555D01*
X85221302Y-74929094D01*
X85304878Y-74930407D01*
X85387476Y-74931705D01*
X85387478Y-74931705D01*
X85393539Y-74931800D01*
X85399450Y-74930446D01*
X85399452Y-74930446D01*
X85555540Y-74894697D01*
X85555543Y-74894696D01*
X85561450Y-74893343D01*
X85715341Y-74815944D01*
X85719953Y-74812005D01*
X85719956Y-74812003D01*
X85841716Y-74708010D01*
X85846328Y-74704071D01*
X85946848Y-74564182D01*
X85954850Y-74544278D01*
X86008834Y-74409985D01*
X86011098Y-74404354D01*
X86032660Y-74252858D01*
X86060012Y-74197025D01*
X86114959Y-74167932D01*
X86176513Y-74176692D01*
X86221162Y-74219960D01*
X86232247Y-74255994D01*
X86246215Y-74382511D01*
X86305413Y-74544278D01*
X86401490Y-74687255D01*
X86528898Y-74803187D01*
X86680282Y-74885382D01*
X86686152Y-74886922D01*
X86841035Y-74927555D01*
X86841036Y-74927555D01*
X86846902Y-74929094D01*
X86930478Y-74930407D01*
X87013076Y-74931705D01*
X87013078Y-74931705D01*
X87019139Y-74931800D01*
X87025050Y-74930446D01*
X87025052Y-74930446D01*
X87181140Y-74894697D01*
X87181143Y-74894696D01*
X87187050Y-74893343D01*
X87340941Y-74815944D01*
X87345553Y-74812005D01*
X87345556Y-74812003D01*
X87462297Y-74712297D01*
X88415200Y-74712297D01*
X88415553Y-74718257D01*
X88417470Y-74734361D01*
X88421428Y-74748762D01*
X88460684Y-74837141D01*
X88471028Y-74852193D01*
X88538241Y-74919289D01*
X88553312Y-74929607D01*
X88641747Y-74968704D01*
X88656179Y-74972639D01*
X88671805Y-74974461D01*
X88677642Y-74974800D01*
X89601667Y-74974800D01*
X89614557Y-74970612D01*
X89617600Y-74966423D01*
X89617600Y-74958867D01*
X89922400Y-74958867D01*
X89926588Y-74971757D01*
X89930777Y-74974800D01*
X90862297Y-74974800D01*
X90868257Y-74974447D01*
X90884361Y-74972530D01*
X90898762Y-74968572D01*
X90987141Y-74929316D01*
X91002193Y-74918972D01*
X91069289Y-74851759D01*
X91079607Y-74836688D01*
X91118704Y-74748253D01*
X91122639Y-74733821D01*
X91124461Y-74718195D01*
X91124800Y-74712358D01*
X91124800Y-73688333D01*
X91120612Y-73675443D01*
X91116423Y-73672400D01*
X89938333Y-73672400D01*
X89925443Y-73676588D01*
X89922400Y-73680777D01*
X89922400Y-74958867D01*
X89617600Y-74958867D01*
X89617600Y-73688333D01*
X89613412Y-73675443D01*
X89609223Y-73672400D01*
X88431133Y-73672400D01*
X88418243Y-73676588D01*
X88415200Y-73680777D01*
X88415200Y-74712297D01*
X87462297Y-74712297D01*
X87467316Y-74708010D01*
X87471928Y-74704071D01*
X87572448Y-74564182D01*
X87580450Y-74544278D01*
X87634434Y-74409985D01*
X87636698Y-74404354D01*
X87660970Y-74233814D01*
X87661127Y-74218800D01*
X87656629Y-74181633D01*
X87651755Y-74141351D01*
X87663725Y-74080340D01*
X87687440Y-74053581D01*
X87687151Y-74053292D01*
X87778292Y-73962151D01*
X87784599Y-73949774D01*
X87833213Y-73854363D01*
X87836809Y-73847306D01*
X87851900Y-73752024D01*
X87851900Y-72796576D01*
X87871113Y-72737445D01*
X87921413Y-72700900D01*
X87954078Y-72695988D01*
X88021778Y-72697052D01*
X88055554Y-72697583D01*
X88055556Y-72697583D01*
X88061617Y-72697678D01*
X88067528Y-72696324D01*
X88067530Y-72696324D01*
X88223618Y-72660575D01*
X88223621Y-72660574D01*
X88229528Y-72659221D01*
X88269399Y-72639168D01*
X88330857Y-72629763D01*
X88386106Y-72658280D01*
X88414042Y-72713824D01*
X88415200Y-72729041D01*
X88415200Y-73351667D01*
X88419388Y-73364557D01*
X88423577Y-73367600D01*
X89601667Y-73367600D01*
X89614557Y-73363412D01*
X89617600Y-73359223D01*
X89617600Y-73351667D01*
X89922400Y-73351667D01*
X89926588Y-73364557D01*
X89930777Y-73367600D01*
X91108867Y-73367600D01*
X91121757Y-73363412D01*
X91124800Y-73359223D01*
X91124800Y-72327703D01*
X91124447Y-72321743D01*
X91122530Y-72305639D01*
X91118572Y-72291238D01*
X91079316Y-72202859D01*
X91068972Y-72187807D01*
X91001759Y-72120711D01*
X90986688Y-72110393D01*
X90898253Y-72071296D01*
X90883821Y-72067361D01*
X90868195Y-72065539D01*
X90862358Y-72065200D01*
X89938333Y-72065200D01*
X89925443Y-72069388D01*
X89922400Y-72073577D01*
X89922400Y-73351667D01*
X89617600Y-73351667D01*
X89617600Y-72081133D01*
X89613412Y-72068243D01*
X89609223Y-72065200D01*
X88802509Y-72065200D01*
X88743378Y-72045987D01*
X88706833Y-71995687D01*
X88702638Y-71976686D01*
X88683639Y-71819690D01*
X88683639Y-71819689D01*
X88682910Y-71813667D01*
X88658419Y-71748852D01*
X88624166Y-71658205D01*
X88624165Y-71658204D01*
X88622021Y-71652529D01*
X88524453Y-71510566D01*
X88395838Y-71395974D01*
X88243602Y-71315369D01*
X88076533Y-71273404D01*
X88070476Y-71273372D01*
X88070474Y-71273372D01*
X87936814Y-71272672D01*
X87877784Y-71253149D01*
X87841503Y-71202658D01*
X87837470Y-71184159D01*
X87818961Y-71031212D01*
X87818961Y-71031211D01*
X87818232Y-71025189D01*
X87769806Y-70897032D01*
X87759488Y-70869727D01*
X87759487Y-70869726D01*
X87757343Y-70864051D01*
X87659775Y-70722088D01*
X87531160Y-70607496D01*
X87525800Y-70604658D01*
X87525797Y-70604656D01*
X87457670Y-70568585D01*
X87414402Y-70523936D01*
X87404872Y-70491764D01*
X87387161Y-70345412D01*
X87387161Y-70345411D01*
X87386432Y-70339389D01*
X87364112Y-70280319D01*
X87327688Y-70183927D01*
X87327687Y-70183926D01*
X87325543Y-70178251D01*
X87227975Y-70036288D01*
X87099360Y-69921696D01*
X86947124Y-69841091D01*
X86780055Y-69799126D01*
X86773998Y-69799094D01*
X86773996Y-69799094D01*
X86689894Y-69798654D01*
X86607798Y-69798224D01*
X86601901Y-69799640D01*
X86601899Y-69799640D01*
X86446197Y-69837021D01*
X86440299Y-69838437D01*
X86434913Y-69841217D01*
X86434910Y-69841218D01*
X86292613Y-69914664D01*
X86287227Y-69917444D01*
X86282662Y-69921426D01*
X86282661Y-69921427D01*
X86170790Y-70019018D01*
X86157419Y-70030682D01*
X86129914Y-70069818D01*
X86061858Y-70166652D01*
X86061856Y-70166656D01*
X86058370Y-70171616D01*
X86056167Y-70177265D01*
X86056166Y-70177268D01*
X85998002Y-70326452D01*
X85995797Y-70332108D01*
X85978528Y-70463275D01*
X85976971Y-70475102D01*
X85948367Y-70533106D01*
X85580496Y-70900977D01*
X85525098Y-70929203D01*
X85463690Y-70919477D01*
X85419726Y-70875513D01*
X85409765Y-70815667D01*
X85425305Y-70706480D01*
X85425770Y-70703214D01*
X85425927Y-70688200D01*
X85411035Y-70565141D01*
X85405961Y-70523211D01*
X85405961Y-70523209D01*
X85405232Y-70517189D01*
X85400345Y-70504254D01*
X85346488Y-70361727D01*
X85346487Y-70361726D01*
X85344343Y-70356051D01*
X85246775Y-70214088D01*
X85118160Y-70099496D01*
X85008884Y-70041637D01*
X84971286Y-70021730D01*
X84965924Y-70018891D01*
X84798855Y-69976926D01*
X84792798Y-69976894D01*
X84792796Y-69976894D01*
X84708694Y-69976454D01*
X84626598Y-69976024D01*
X84620701Y-69977440D01*
X84620699Y-69977440D01*
X84517042Y-70002326D01*
X84459099Y-70016237D01*
X84453713Y-70019017D01*
X84453710Y-70019018D01*
X84350034Y-70072530D01*
X84306027Y-70095244D01*
X84301462Y-70099226D01*
X84301461Y-70099227D01*
X84210874Y-70178251D01*
X84176219Y-70208482D01*
X84140517Y-70259282D01*
X84080658Y-70344452D01*
X84080656Y-70344456D01*
X84077170Y-70349416D01*
X84074967Y-70355065D01*
X84074966Y-70355068D01*
X84026628Y-70479051D01*
X84014597Y-70509908D01*
X84014129Y-70513461D01*
X83981332Y-70565141D01*
X83923524Y-70588029D01*
X83863303Y-70572568D01*
X83823101Y-70523188D01*
X83771688Y-70387127D01*
X83771687Y-70387126D01*
X83769543Y-70381451D01*
X83671975Y-70239488D01*
X83543360Y-70124896D01*
X83391124Y-70044291D01*
X83224055Y-70002326D01*
X83217998Y-70002294D01*
X83217996Y-70002294D01*
X83133894Y-70001854D01*
X83051798Y-70001424D01*
X83045901Y-70002840D01*
X83045899Y-70002840D01*
X82942242Y-70027726D01*
X82884299Y-70041637D01*
X82878913Y-70044417D01*
X82878910Y-70044418D01*
X82736613Y-70117864D01*
X82731227Y-70120644D01*
X82726662Y-70124626D01*
X82726661Y-70124627D01*
X82618378Y-70219088D01*
X82601419Y-70233882D01*
X82597931Y-70238846D01*
X82595707Y-70242010D01*
X82545987Y-70279342D01*
X82483821Y-70280319D01*
X82446478Y-70259278D01*
X82429879Y-70244488D01*
X82324160Y-70150296D01*
X82262907Y-70117864D01*
X82177286Y-70072530D01*
X82171924Y-70069691D01*
X82004855Y-70027726D01*
X81998798Y-70027694D01*
X81998796Y-70027694D01*
X81914694Y-70027254D01*
X81832598Y-70026824D01*
X81826701Y-70028240D01*
X81826699Y-70028240D01*
X81670997Y-70065621D01*
X81665099Y-70067037D01*
X81659713Y-70069817D01*
X81659710Y-70069818D01*
X81517413Y-70143264D01*
X81512027Y-70146044D01*
X81507462Y-70150026D01*
X81507461Y-70150027D01*
X81399178Y-70244488D01*
X81382219Y-70259282D01*
X81335012Y-70326452D01*
X81286658Y-70395252D01*
X81286656Y-70395256D01*
X81283170Y-70400216D01*
X81280968Y-70405865D01*
X81280967Y-70405866D01*
X81277343Y-70415162D01*
X81237962Y-70463275D01*
X81177823Y-70479051D01*
X81119896Y-70456466D01*
X81089509Y-70414176D01*
X81079290Y-70387132D01*
X81079289Y-70387130D01*
X81077143Y-70381451D01*
X80979575Y-70239488D01*
X80850960Y-70124896D01*
X80698724Y-70044291D01*
X80531655Y-70002326D01*
X80525598Y-70002294D01*
X80525596Y-70002294D01*
X80441494Y-70001854D01*
X80359398Y-70001424D01*
X80353501Y-70002840D01*
X80353499Y-70002840D01*
X80249842Y-70027726D01*
X80191899Y-70041637D01*
X80186513Y-70044417D01*
X80186510Y-70044418D01*
X80044213Y-70117864D01*
X80038827Y-70120644D01*
X80034262Y-70124626D01*
X80034261Y-70124627D01*
X79925978Y-70219088D01*
X79909019Y-70233882D01*
X79893970Y-70255295D01*
X79813458Y-70369852D01*
X79813456Y-70369856D01*
X79809970Y-70374816D01*
X79807767Y-70380465D01*
X79807766Y-70380468D01*
X79756233Y-70512645D01*
X79747397Y-70535308D01*
X79724912Y-70706092D01*
X79725577Y-70712116D01*
X79725577Y-70712120D01*
X79726678Y-70722088D01*
X79743815Y-70877311D01*
X79756073Y-70910807D01*
X79795855Y-71019517D01*
X79803013Y-71039078D01*
X79899090Y-71182055D01*
X79903577Y-71186138D01*
X79903578Y-71186139D01*
X79922776Y-71203608D01*
X79953580Y-71257614D01*
X79946757Y-71319413D01*
X79921202Y-71353823D01*
X79868258Y-71400009D01*
X79807419Y-71453082D01*
X79769855Y-71506531D01*
X79711858Y-71589052D01*
X79711856Y-71589056D01*
X79708370Y-71594016D01*
X79645797Y-71754508D01*
X79623312Y-71925292D01*
X79623977Y-71931316D01*
X79623977Y-71931320D01*
X79628986Y-71976686D01*
X79642215Y-72096511D01*
X79675808Y-72188308D01*
X79678086Y-72250439D01*
X79670973Y-72268543D01*
X79633191Y-72342694D01*
X79618100Y-72437976D01*
X79618100Y-73752024D01*
X79224800Y-73752024D01*
X79224800Y-73688333D01*
X79220612Y-73675443D01*
X79216423Y-73672400D01*
X78038333Y-73672400D01*
X78025443Y-73676588D01*
X78022400Y-73680777D01*
X78022400Y-74958867D01*
X77717600Y-74958867D01*
X77717600Y-73688333D01*
X77713412Y-73675443D01*
X77709223Y-73672400D01*
X76531133Y-73672400D01*
X76518243Y-73676588D01*
X76515200Y-73680777D01*
X76515200Y-74712297D01*
X74676000Y-74712297D01*
X74676000Y-73351667D01*
X76515200Y-73351667D01*
X76519388Y-73364557D01*
X76523577Y-73367600D01*
X77701667Y-73367600D01*
X77714557Y-73363412D01*
X77717600Y-73359223D01*
X77717600Y-73351667D01*
X78022400Y-73351667D01*
X78026588Y-73364557D01*
X78030777Y-73367600D01*
X79208867Y-73367600D01*
X79221757Y-73363412D01*
X79224800Y-73359223D01*
X79224800Y-72327703D01*
X79224447Y-72321743D01*
X79222530Y-72305639D01*
X79218572Y-72291238D01*
X79179316Y-72202859D01*
X79168972Y-72187807D01*
X79101759Y-72120711D01*
X79086688Y-72110393D01*
X78998253Y-72071296D01*
X78983821Y-72067361D01*
X78968195Y-72065539D01*
X78962358Y-72065200D01*
X78038333Y-72065200D01*
X78025443Y-72069388D01*
X78022400Y-72073577D01*
X78022400Y-73351667D01*
X77717600Y-73351667D01*
X77717600Y-72081133D01*
X77713412Y-72068243D01*
X77709223Y-72065200D01*
X76777703Y-72065200D01*
X76771743Y-72065553D01*
X76755639Y-72067470D01*
X76741238Y-72071428D01*
X76652859Y-72110684D01*
X76637807Y-72121028D01*
X76570711Y-72188241D01*
X76560393Y-72203312D01*
X76521296Y-72291747D01*
X76517361Y-72306179D01*
X76515539Y-72321805D01*
X76515200Y-72327642D01*
X76515200Y-73351667D01*
X74676000Y-73351667D01*
X74676000Y-67258274D01*
X86862301Y-67258274D01*
X86862966Y-67264298D01*
X86862966Y-67264302D01*
X86864424Y-67277504D01*
X86881204Y-67429493D01*
X86940402Y-67591260D01*
X87036479Y-67734237D01*
X87163887Y-67850169D01*
X87315271Y-67932364D01*
X87321141Y-67933904D01*
X87476024Y-67974537D01*
X87476025Y-67974537D01*
X87481891Y-67976076D01*
X87565467Y-67977389D01*
X87648065Y-67978687D01*
X87648067Y-67978687D01*
X87654128Y-67978782D01*
X87660039Y-67977428D01*
X87660041Y-67977428D01*
X87816129Y-67941679D01*
X87816132Y-67941678D01*
X87822039Y-67940325D01*
X87975930Y-67862926D01*
X87980542Y-67858987D01*
X87980545Y-67858985D01*
X88102305Y-67754992D01*
X88106917Y-67751053D01*
X88207437Y-67611164D01*
X88215439Y-67591260D01*
X88269423Y-67456967D01*
X88271687Y-67451336D01*
X88295959Y-67280796D01*
X88296116Y-67265782D01*
X88275421Y-67094771D01*
X88214532Y-66933633D01*
X88116964Y-66791670D01*
X87988349Y-66677078D01*
X87836113Y-66596473D01*
X87669044Y-66554508D01*
X87662987Y-66554476D01*
X87662985Y-66554476D01*
X87578883Y-66554036D01*
X87496787Y-66553606D01*
X87490890Y-66555022D01*
X87490888Y-66555022D01*
X87335186Y-66592403D01*
X87329288Y-66593819D01*
X87323902Y-66596599D01*
X87323899Y-66596600D01*
X87181602Y-66670046D01*
X87176216Y-66672826D01*
X87046408Y-66786064D01*
X86996883Y-66856531D01*
X86950847Y-66922034D01*
X86950845Y-66922038D01*
X86947359Y-66926998D01*
X86884786Y-67087490D01*
X86862301Y-67258274D01*
X74676000Y-67258274D01*
X74676000Y-66325538D01*
X75800912Y-66325538D01*
X75801012Y-66326170D01*
X75805917Y-66331811D01*
X75936606Y-66423321D01*
X75944184Y-66427696D01*
X76135214Y-66516774D01*
X76143439Y-66519767D01*
X76347026Y-66574319D01*
X76355655Y-66575840D01*
X76565622Y-66594210D01*
X76574378Y-66594210D01*
X76784345Y-66575840D01*
X76792974Y-66574319D01*
X76996561Y-66519767D01*
X77004786Y-66516774D01*
X77195816Y-66427696D01*
X77203394Y-66423321D01*
X77331150Y-66333865D01*
X77337425Y-66325538D01*
X90300912Y-66325538D01*
X90301012Y-66326170D01*
X90305917Y-66331811D01*
X90436606Y-66423321D01*
X90444184Y-66427696D01*
X90635214Y-66516774D01*
X90643439Y-66519767D01*
X90847026Y-66574319D01*
X90855655Y-66575840D01*
X91065622Y-66594210D01*
X91074378Y-66594210D01*
X91284345Y-66575840D01*
X91292974Y-66574319D01*
X91496561Y-66519767D01*
X91504786Y-66516774D01*
X91695816Y-66427696D01*
X91703394Y-66423321D01*
X91831150Y-66333865D01*
X91839305Y-66323043D01*
X91839317Y-66322400D01*
X91835467Y-66315993D01*
X91081268Y-65561794D01*
X91069189Y-65555639D01*
X91064077Y-65556449D01*
X90307067Y-66313459D01*
X90300912Y-66325538D01*
X77337425Y-66325538D01*
X77339305Y-66323043D01*
X77339317Y-66322400D01*
X77335467Y-66315993D01*
X76581268Y-65561794D01*
X76569189Y-65555639D01*
X76564077Y-65556449D01*
X75807067Y-66313459D01*
X75800912Y-66325538D01*
X74676000Y-66325538D01*
X74676000Y-65339378D01*
X75310790Y-65339378D01*
X75329160Y-65549345D01*
X75330681Y-65557974D01*
X75385233Y-65761561D01*
X75388226Y-65769786D01*
X75477304Y-65960815D01*
X75481679Y-65968393D01*
X75571135Y-66096150D01*
X75581957Y-66104305D01*
X75582599Y-66104317D01*
X75589009Y-66100465D01*
X76343206Y-65346268D01*
X76348534Y-65335811D01*
X76790639Y-65335811D01*
X76791449Y-65340923D01*
X77548459Y-66097933D01*
X77560538Y-66104088D01*
X77561170Y-66103988D01*
X77566811Y-66099084D01*
X77658321Y-65968393D01*
X77662696Y-65960815D01*
X77751774Y-65769786D01*
X77754767Y-65761561D01*
X77809319Y-65557974D01*
X77810840Y-65549345D01*
X77829210Y-65339378D01*
X77829210Y-65330622D01*
X77810840Y-65120655D01*
X77809319Y-65112026D01*
X77763302Y-64940292D01*
X79343912Y-64940292D01*
X79344577Y-64946316D01*
X79344577Y-64946320D01*
X79349563Y-64991480D01*
X79362815Y-65111511D01*
X79364901Y-65117211D01*
X79414837Y-65253668D01*
X79422013Y-65273278D01*
X79425399Y-65278316D01*
X79425399Y-65278317D01*
X79466431Y-65339378D01*
X79518090Y-65416255D01*
X79645498Y-65532187D01*
X79796882Y-65614382D01*
X79802752Y-65615922D01*
X79957635Y-65656555D01*
X79957636Y-65656555D01*
X79963502Y-65658094D01*
X80047078Y-65659407D01*
X80129676Y-65660705D01*
X80129678Y-65660705D01*
X80135739Y-65660800D01*
X80141650Y-65659446D01*
X80141652Y-65659446D01*
X80297740Y-65623697D01*
X80297743Y-65623696D01*
X80303650Y-65622343D01*
X80457541Y-65544944D01*
X80462153Y-65541005D01*
X80462156Y-65541003D01*
X80583916Y-65437010D01*
X80588528Y-65433071D01*
X80689048Y-65293182D01*
X80697050Y-65273278D01*
X80716329Y-65225318D01*
X80756210Y-65177620D01*
X80816511Y-65162473D01*
X80874199Y-65185663D01*
X80904142Y-65228267D01*
X80920613Y-65273278D01*
X80923999Y-65278316D01*
X80923999Y-65278317D01*
X80965031Y-65339378D01*
X81016690Y-65416255D01*
X81144098Y-65532187D01*
X81295482Y-65614382D01*
X81301352Y-65615922D01*
X81456235Y-65656555D01*
X81456236Y-65656555D01*
X81462102Y-65658094D01*
X81545678Y-65659407D01*
X81628276Y-65660705D01*
X81628278Y-65660705D01*
X81634339Y-65660800D01*
X81640250Y-65659446D01*
X81640252Y-65659446D01*
X81796340Y-65623697D01*
X81796343Y-65623696D01*
X81802250Y-65622343D01*
X81956141Y-65544944D01*
X81960753Y-65541005D01*
X81960756Y-65541003D01*
X82082516Y-65437010D01*
X82087128Y-65433071D01*
X82187648Y-65293182D01*
X82210064Y-65237419D01*
X82249944Y-65189724D01*
X82310245Y-65174577D01*
X82367932Y-65197767D01*
X82397876Y-65240372D01*
X82419213Y-65298678D01*
X82422599Y-65303716D01*
X82422599Y-65303717D01*
X82500966Y-65420338D01*
X82515290Y-65441655D01*
X82642698Y-65557587D01*
X82794082Y-65639782D01*
X82799952Y-65641322D01*
X82954835Y-65681955D01*
X82954836Y-65681955D01*
X82960702Y-65683494D01*
X83044278Y-65684807D01*
X83126876Y-65686105D01*
X83126878Y-65686105D01*
X83132939Y-65686200D01*
X83138850Y-65684846D01*
X83138852Y-65684846D01*
X83294940Y-65649097D01*
X83294943Y-65649096D01*
X83300850Y-65647743D01*
X83454741Y-65570344D01*
X83459353Y-65566405D01*
X83459356Y-65566403D01*
X83581116Y-65462410D01*
X83585728Y-65458471D01*
X83686248Y-65318582D01*
X83694250Y-65298678D01*
X83713529Y-65250718D01*
X83753410Y-65203020D01*
X83813711Y-65187873D01*
X83871399Y-65211063D01*
X83901342Y-65253668D01*
X83913744Y-65287558D01*
X83917813Y-65298678D01*
X83921199Y-65303716D01*
X83921199Y-65303717D01*
X83999566Y-65420338D01*
X84013890Y-65441655D01*
X84141298Y-65557587D01*
X84292682Y-65639782D01*
X84298552Y-65641322D01*
X84453435Y-65681955D01*
X84453436Y-65681955D01*
X84459302Y-65683494D01*
X84542878Y-65684807D01*
X84625476Y-65686105D01*
X84625478Y-65686105D01*
X84631539Y-65686200D01*
X84637450Y-65684846D01*
X84637452Y-65684846D01*
X84793540Y-65649097D01*
X84793543Y-65649096D01*
X84799450Y-65647743D01*
X84953341Y-65570344D01*
X84957953Y-65566405D01*
X84957956Y-65566403D01*
X85079716Y-65462410D01*
X85084328Y-65458471D01*
X85169905Y-65339378D01*
X89810790Y-65339378D01*
X89829160Y-65549345D01*
X89830681Y-65557974D01*
X89885233Y-65761561D01*
X89888226Y-65769786D01*
X89977304Y-65960815D01*
X89981679Y-65968393D01*
X90071135Y-66096150D01*
X90081957Y-66104305D01*
X90082599Y-66104317D01*
X90089009Y-66100465D01*
X90843206Y-65346268D01*
X90848534Y-65335811D01*
X91290639Y-65335811D01*
X91291449Y-65340923D01*
X92048459Y-66097933D01*
X92060538Y-66104088D01*
X92061170Y-66103988D01*
X92066811Y-66099084D01*
X92158321Y-65968393D01*
X92162696Y-65960815D01*
X92251774Y-65769786D01*
X92254767Y-65761561D01*
X92309319Y-65557974D01*
X92310840Y-65549345D01*
X92329210Y-65339378D01*
X92329210Y-65330622D01*
X92310840Y-65120655D01*
X92309319Y-65112026D01*
X92254767Y-64908439D01*
X92251774Y-64900214D01*
X92162696Y-64709185D01*
X92158321Y-64701607D01*
X92068865Y-64573850D01*
X92058043Y-64565695D01*
X92057401Y-64565683D01*
X92050991Y-64569535D01*
X91296794Y-65323732D01*
X91290639Y-65335811D01*
X90848534Y-65335811D01*
X90849361Y-65334189D01*
X90848551Y-65329077D01*
X90091541Y-64572067D01*
X90079462Y-64565912D01*
X90078830Y-64566012D01*
X90073189Y-64570916D01*
X89981679Y-64701607D01*
X89977304Y-64709185D01*
X89888226Y-64900214D01*
X89885233Y-64908439D01*
X89830681Y-65112026D01*
X89829160Y-65120655D01*
X89810790Y-65330622D01*
X89810790Y-65339378D01*
X85169905Y-65339378D01*
X85184848Y-65318582D01*
X85192850Y-65298678D01*
X85237392Y-65187873D01*
X85249098Y-65158754D01*
X85273370Y-64988214D01*
X85273527Y-64973200D01*
X85252832Y-64802189D01*
X85242758Y-64775527D01*
X85194088Y-64646727D01*
X85194087Y-64646726D01*
X85191943Y-64641051D01*
X85094375Y-64499088D01*
X84965760Y-64384496D01*
X84896074Y-64347599D01*
X90300683Y-64347599D01*
X90304535Y-64354009D01*
X91058732Y-65108206D01*
X91070811Y-65114361D01*
X91075923Y-65113551D01*
X91832933Y-64356541D01*
X91839088Y-64344462D01*
X91838988Y-64343830D01*
X91834083Y-64338189D01*
X91703394Y-64246679D01*
X91695816Y-64242304D01*
X91504786Y-64153226D01*
X91496561Y-64150233D01*
X91292974Y-64095681D01*
X91284345Y-64094160D01*
X91074378Y-64075790D01*
X91065622Y-64075790D01*
X90855655Y-64094160D01*
X90847026Y-64095681D01*
X90643439Y-64150233D01*
X90635214Y-64153226D01*
X90444185Y-64242304D01*
X90436607Y-64246679D01*
X90308850Y-64336135D01*
X90300695Y-64346957D01*
X90300683Y-64347599D01*
X84896074Y-64347599D01*
X84890149Y-64344462D01*
X84818886Y-64306730D01*
X84813524Y-64303891D01*
X84646455Y-64261926D01*
X84640398Y-64261894D01*
X84640396Y-64261894D01*
X84556294Y-64261454D01*
X84474198Y-64261024D01*
X84468301Y-64262440D01*
X84468299Y-64262440D01*
X84312597Y-64299821D01*
X84306699Y-64301237D01*
X84301313Y-64304017D01*
X84301310Y-64304018D01*
X84159013Y-64377464D01*
X84153627Y-64380244D01*
X84149062Y-64384226D01*
X84149061Y-64384227D01*
X84040778Y-64478688D01*
X84023819Y-64493482D01*
X83974295Y-64563949D01*
X83928258Y-64629452D01*
X83928256Y-64629456D01*
X83924770Y-64634416D01*
X83922566Y-64640070D01*
X83922565Y-64640071D01*
X83901171Y-64694945D01*
X83861792Y-64743058D01*
X83801653Y-64758836D01*
X83743726Y-64736252D01*
X83713337Y-64693963D01*
X83695488Y-64646727D01*
X83695487Y-64646726D01*
X83693343Y-64641051D01*
X83595775Y-64499088D01*
X83467160Y-64384496D01*
X83391549Y-64344462D01*
X83320286Y-64306730D01*
X83314924Y-64303891D01*
X83147855Y-64261926D01*
X83141798Y-64261894D01*
X83141796Y-64261894D01*
X83057694Y-64261454D01*
X82975598Y-64261024D01*
X82969701Y-64262440D01*
X82969699Y-64262440D01*
X82813997Y-64299821D01*
X82808099Y-64301237D01*
X82802713Y-64304017D01*
X82802710Y-64304018D01*
X82660413Y-64377464D01*
X82655027Y-64380244D01*
X82650462Y-64384226D01*
X82650461Y-64384227D01*
X82542178Y-64478688D01*
X82525219Y-64493482D01*
X82475695Y-64563949D01*
X82429658Y-64629452D01*
X82429656Y-64629456D01*
X82426170Y-64634416D01*
X82423967Y-64640065D01*
X82423966Y-64640068D01*
X82407445Y-64682444D01*
X82368066Y-64730557D01*
X82307927Y-64746334D01*
X82249999Y-64723750D01*
X82219612Y-64681461D01*
X82196892Y-64621334D01*
X82196886Y-64621323D01*
X82194743Y-64615651D01*
X82097175Y-64473688D01*
X81968560Y-64359096D01*
X81946846Y-64347599D01*
X81821686Y-64281330D01*
X81816324Y-64278491D01*
X81649255Y-64236526D01*
X81643198Y-64236494D01*
X81643196Y-64236494D01*
X81559094Y-64236054D01*
X81476998Y-64235624D01*
X81471101Y-64237040D01*
X81471099Y-64237040D01*
X81367442Y-64261926D01*
X81309499Y-64275837D01*
X81304113Y-64278617D01*
X81304110Y-64278618D01*
X81170464Y-64347599D01*
X81156427Y-64354844D01*
X81151862Y-64358826D01*
X81151861Y-64358827D01*
X81117811Y-64388531D01*
X81026619Y-64468082D01*
X81011570Y-64489495D01*
X80931058Y-64604052D01*
X80931056Y-64604056D01*
X80927570Y-64609016D01*
X80925366Y-64614670D01*
X80925365Y-64614671D01*
X80903971Y-64669545D01*
X80864592Y-64717658D01*
X80804453Y-64733436D01*
X80746526Y-64710852D01*
X80716137Y-64668563D01*
X80698288Y-64621327D01*
X80698287Y-64621326D01*
X80696143Y-64615651D01*
X80598575Y-64473688D01*
X80469960Y-64359096D01*
X80448246Y-64347599D01*
X80323086Y-64281330D01*
X80317724Y-64278491D01*
X80150655Y-64236526D01*
X80144598Y-64236494D01*
X80144596Y-64236494D01*
X80060494Y-64236054D01*
X79978398Y-64235624D01*
X79972501Y-64237040D01*
X79972499Y-64237040D01*
X79868842Y-64261926D01*
X79810899Y-64275837D01*
X79805513Y-64278617D01*
X79805510Y-64278618D01*
X79671864Y-64347599D01*
X79657827Y-64354844D01*
X79653262Y-64358826D01*
X79653261Y-64358827D01*
X79619211Y-64388531D01*
X79528019Y-64468082D01*
X79512970Y-64489495D01*
X79432458Y-64604052D01*
X79432456Y-64604056D01*
X79428970Y-64609016D01*
X79426767Y-64614665D01*
X79426766Y-64614668D01*
X79395468Y-64694945D01*
X79366397Y-64769508D01*
X79343912Y-64940292D01*
X77763302Y-64940292D01*
X77754767Y-64908439D01*
X77751774Y-64900214D01*
X77662696Y-64709185D01*
X77658321Y-64701607D01*
X77568865Y-64573850D01*
X77558043Y-64565695D01*
X77557401Y-64565683D01*
X77550991Y-64569535D01*
X76796794Y-65323732D01*
X76790639Y-65335811D01*
X76348534Y-65335811D01*
X76349361Y-65334189D01*
X76348551Y-65329077D01*
X75591541Y-64572067D01*
X75579462Y-64565912D01*
X75578830Y-64566012D01*
X75573189Y-64570916D01*
X75481679Y-64701607D01*
X75477304Y-64709185D01*
X75388226Y-64900214D01*
X75385233Y-64908439D01*
X75330681Y-65112026D01*
X75329160Y-65120655D01*
X75310790Y-65330622D01*
X75310790Y-65339378D01*
X74676000Y-65339378D01*
X74676000Y-64347599D01*
X75800683Y-64347599D01*
X75804535Y-64354009D01*
X76558732Y-65108206D01*
X76570811Y-65114361D01*
X76575923Y-65113551D01*
X77332933Y-64356541D01*
X77339088Y-64344462D01*
X77338988Y-64343830D01*
X77334083Y-64338189D01*
X77203394Y-64246679D01*
X77195816Y-64242304D01*
X77004786Y-64153226D01*
X76996561Y-64150233D01*
X76792974Y-64095681D01*
X76784345Y-64094160D01*
X76574378Y-64075790D01*
X76565622Y-64075790D01*
X76355655Y-64094160D01*
X76347026Y-64095681D01*
X76143439Y-64150233D01*
X76135214Y-64153226D01*
X75944185Y-64242304D01*
X75936607Y-64246679D01*
X75808850Y-64336135D01*
X75800695Y-64346957D01*
X75800683Y-64347599D01*
X74676000Y-64347599D01*
X74676000Y-60425538D01*
X75200912Y-60425538D01*
X75201012Y-60426170D01*
X75205917Y-60431811D01*
X75336606Y-60523321D01*
X75344184Y-60527696D01*
X75535214Y-60616774D01*
X75543439Y-60619767D01*
X75747026Y-60674319D01*
X75755655Y-60675840D01*
X75965622Y-60694210D01*
X75974378Y-60694210D01*
X76184345Y-60675840D01*
X76192974Y-60674319D01*
X76396561Y-60619767D01*
X76404786Y-60616774D01*
X76595816Y-60527696D01*
X76603394Y-60523321D01*
X76731150Y-60433865D01*
X76737425Y-60425538D01*
X90900912Y-60425538D01*
X90901012Y-60426170D01*
X90905917Y-60431811D01*
X91036606Y-60523321D01*
X91044184Y-60527696D01*
X91235214Y-60616774D01*
X91243439Y-60619767D01*
X91447026Y-60674319D01*
X91455655Y-60675840D01*
X91665622Y-60694210D01*
X91674378Y-60694210D01*
X91884345Y-60675840D01*
X91892974Y-60674319D01*
X92096561Y-60619767D01*
X92104786Y-60616774D01*
X92295816Y-60527696D01*
X92303394Y-60523321D01*
X92431150Y-60433865D01*
X92439305Y-60423043D01*
X92439317Y-60422400D01*
X92435467Y-60415993D01*
X91681268Y-59661794D01*
X91669189Y-59655639D01*
X91664077Y-59656449D01*
X90907067Y-60413459D01*
X90900912Y-60425538D01*
X76737425Y-60425538D01*
X76739305Y-60423043D01*
X76739317Y-60422400D01*
X76735467Y-60415993D01*
X75981268Y-59661794D01*
X75969189Y-59655639D01*
X75964077Y-59656449D01*
X75207067Y-60413459D01*
X75200912Y-60425538D01*
X74676000Y-60425538D01*
X74676000Y-60082896D01*
X74695213Y-60023765D01*
X74745513Y-59987220D01*
X74807687Y-59987220D01*
X74857987Y-60023765D01*
X74867774Y-60040380D01*
X74877301Y-60060810D01*
X74881679Y-60068393D01*
X74971135Y-60196150D01*
X74981957Y-60204305D01*
X74982599Y-60204317D01*
X74989009Y-60200465D01*
X75743206Y-59446268D01*
X75748534Y-59435811D01*
X76190639Y-59435811D01*
X76191449Y-59440923D01*
X76948459Y-60197933D01*
X76960538Y-60204088D01*
X76961170Y-60203988D01*
X76966811Y-60199084D01*
X77058321Y-60068393D01*
X77062696Y-60060815D01*
X77151774Y-59869786D01*
X77154767Y-59861561D01*
X77209319Y-59657974D01*
X77210840Y-59649345D01*
X77229210Y-59439378D01*
X90410790Y-59439378D01*
X90429160Y-59649345D01*
X90430681Y-59657974D01*
X90485233Y-59861561D01*
X90488226Y-59869786D01*
X90577304Y-60060815D01*
X90581679Y-60068393D01*
X90671135Y-60196150D01*
X90681957Y-60204305D01*
X90682599Y-60204317D01*
X90689009Y-60200465D01*
X91443206Y-59446268D01*
X91449361Y-59434189D01*
X91448551Y-59429077D01*
X90691541Y-58672067D01*
X90679462Y-58665912D01*
X90678830Y-58666012D01*
X90673189Y-58670916D01*
X90581679Y-58801607D01*
X90577304Y-58809185D01*
X90488226Y-59000214D01*
X90485233Y-59008439D01*
X90430681Y-59212026D01*
X90429160Y-59220655D01*
X90410790Y-59430622D01*
X90410790Y-59439378D01*
X77229210Y-59439378D01*
X77229210Y-59430622D01*
X77210840Y-59220655D01*
X77209319Y-59212026D01*
X77154767Y-59008439D01*
X77151774Y-59000214D01*
X77062696Y-58809185D01*
X77058321Y-58801607D01*
X76968865Y-58673850D01*
X76958043Y-58665695D01*
X76957401Y-58665683D01*
X76950991Y-58669535D01*
X76196794Y-59423732D01*
X76190639Y-59435811D01*
X75748534Y-59435811D01*
X75749361Y-59434189D01*
X75748551Y-59429077D01*
X74991541Y-58672067D01*
X74979462Y-58665912D01*
X74978830Y-58666012D01*
X74973189Y-58670916D01*
X74881679Y-58801607D01*
X74877301Y-58809190D01*
X74867774Y-58829620D01*
X74825372Y-58875091D01*
X74764340Y-58886954D01*
X74707991Y-58860678D01*
X74677848Y-58806299D01*
X74676000Y-58787104D01*
X74676000Y-58447599D01*
X75200683Y-58447599D01*
X75204535Y-58454009D01*
X75958732Y-59208206D01*
X75970811Y-59214361D01*
X75975923Y-59213551D01*
X76732933Y-58456541D01*
X76737490Y-58447599D01*
X90900683Y-58447599D01*
X90904535Y-58454009D01*
X91658732Y-59208206D01*
X91670811Y-59214361D01*
X91675923Y-59213551D01*
X92432933Y-58456541D01*
X92439088Y-58444462D01*
X92438988Y-58443830D01*
X92434083Y-58438189D01*
X92303394Y-58346679D01*
X92295816Y-58342304D01*
X92104786Y-58253226D01*
X92096561Y-58250233D01*
X91892974Y-58195681D01*
X91884345Y-58194160D01*
X91674378Y-58175790D01*
X91665622Y-58175790D01*
X91455655Y-58194160D01*
X91447026Y-58195681D01*
X91243439Y-58250233D01*
X91235214Y-58253226D01*
X91044185Y-58342304D01*
X91036607Y-58346679D01*
X90908850Y-58436135D01*
X90900695Y-58446957D01*
X90900683Y-58447599D01*
X76737490Y-58447599D01*
X76739088Y-58444462D01*
X76738988Y-58443830D01*
X76734083Y-58438189D01*
X76603394Y-58346679D01*
X76595816Y-58342304D01*
X76404786Y-58253226D01*
X76396561Y-58250233D01*
X76192974Y-58195681D01*
X76184345Y-58194160D01*
X75974378Y-58175790D01*
X75965622Y-58175790D01*
X75755655Y-58194160D01*
X75747026Y-58195681D01*
X75543439Y-58250233D01*
X75535214Y-58253226D01*
X75344185Y-58342304D01*
X75336607Y-58346679D01*
X75208850Y-58436135D01*
X75200695Y-58446957D01*
X75200683Y-58447599D01*
X74676000Y-58447599D01*
X74676000Y-56488600D01*
X74695213Y-56429469D01*
X74745513Y-56392924D01*
X74776600Y-56388000D01*
X92863400Y-56388000D01*
X92922531Y-56407213D01*
G37*
%TD.AperFunction*%
%TD*%
M02*
