%TF.GenerationSoftware,KiCad,Pcbnew,(6.0.2)*%
%TF.CreationDate,2022-03-04T15:26:31-05:00*%
%TF.ProjectId,Amiga500 Mod PCB Rev A,416d6967-6135-4303-9020-4d6f64205043,rev?*%
%TF.SameCoordinates,Original*%
%TF.FileFunction,Copper,L3,Inr*%
%TF.FilePolarity,Positive*%
%FSLAX46Y46*%
G04 Gerber Fmt 4.6, Leading zero omitted, Abs format (unit mm)*
G04 Created by KiCad (PCBNEW (6.0.2)) date 2022-03-04 15:26:31*
%MOMM*%
%LPD*%
G01*
G04 APERTURE LIST*
%TA.AperFunction,ComponentPad*%
%ADD10C,1.600000*%
%TD*%
%TA.AperFunction,ComponentPad*%
%ADD11C,1.900000*%
%TD*%
%TA.AperFunction,ComponentPad*%
%ADD12C,3.048000*%
%TD*%
%TA.AperFunction,ComponentPad*%
%ADD13R,1.700000X1.700000*%
%TD*%
%TA.AperFunction,ComponentPad*%
%ADD14O,1.700000X1.700000*%
%TD*%
%TA.AperFunction,ComponentPad*%
%ADD15O,1.450000X2.900000*%
%TD*%
%TA.AperFunction,ViaPad*%
%ADD16C,0.609600*%
%TD*%
G04 APERTURE END LIST*
D10*
%TO.N,N/C*%
%TO.C,SW2*%
X106506000Y-59182000D03*
X114506000Y-59182000D03*
%TD*%
D11*
%TO.N,GNDREF*%
%TO.C,J1*%
X76570000Y-65335000D03*
X75970000Y-59435000D03*
X91670000Y-59435000D03*
X91070000Y-65335000D03*
%TD*%
D12*
%TO.N,unconnected-(J7-Pad1)*%
%TO.C,J7*%
X134366000Y-59097700D03*
%TO.N,unconnected-(J7-Pad2)*%
X129286000Y-59097700D03*
%TO.N,unconnected-(J7-Pad3)*%
X129286000Y-64533300D03*
%TO.N,unconnected-(J7-Pad4)*%
X134366000Y-64533300D03*
%TD*%
%TO.N,unconnected-(J6-Pad1)*%
%TO.C,J6*%
X72644000Y-59097700D03*
%TO.N,unconnected-(J6-Pad2)*%
X67564000Y-59097700D03*
%TO.N,unconnected-(J6-Pad3)*%
X67564000Y-64533300D03*
%TO.N,unconnected-(J6-Pad4)*%
X72644000Y-64533300D03*
%TD*%
D13*
%TO.N,Net-(J3-Pad1)*%
%TO.C,J3*%
X100589004Y-72136000D03*
D14*
%TO.N,Net-(J3-Pad2)*%
X98049000Y-72136000D03*
%TD*%
D13*
%TO.N,Net-(J5-Pad1)*%
%TO.C,J5*%
X130038000Y-72136000D03*
D14*
%TO.N,Net-(J5-Pad2)*%
X127498000Y-72136000D03*
%TO.N,Net-(J5-Pad3)*%
X124958000Y-72136000D03*
%TO.N,Net-(J5-Pad4)*%
X122418000Y-72136000D03*
%TD*%
D13*
%TO.N,Net-(J4-Pad1)*%
%TO.C,J4*%
X115306000Y-72136000D03*
D14*
%TO.N,Net-(J4-Pad2)*%
X112766000Y-72136000D03*
%TO.N,Net-(J4-Pad3)*%
X110226000Y-72136000D03*
%TO.N,Net-(J4-Pad4)*%
X107686000Y-72136000D03*
%TD*%
D15*
%TO.N,GNDREF*%
%TO.C,J2*%
X89245000Y-77470000D03*
X78395000Y-77470000D03*
%TD*%
D16*
%TO.N,Net-(J5-Pad4)*%
X125425200Y-60071000D03*
X121412000Y-58039000D03*
X125476000Y-67310000D03*
%TO.N,Net-(J5-Pad1)*%
X122936000Y-58039000D03*
%TO.N,/Plug Detect*%
X87986678Y-71984678D03*
%TO.N,/+5V Power*%
X86944200Y-74218800D03*
%TO.N,/HEAC+*%
X86741000Y-71983600D03*
%TO.N,/SDA*%
X87122000Y-71196200D03*
%TO.N,/SCL*%
X86690200Y-70510400D03*
%TO.N,/CEC*%
X85115400Y-71932800D03*
%TO.N,/CEC Ground*%
X85318600Y-74218800D03*
X87579189Y-67265782D03*
%TO.N,/TMDS Clock-*%
X84709000Y-70688200D03*
%TO.N,/TMDS Clock+*%
X83921600Y-71932800D03*
%TO.N,/TMDS Clock shield*%
X84124800Y-74218800D03*
X84556600Y-64973200D03*
%TO.N,/TMDS Data0-*%
X83134200Y-70713600D03*
%TO.N,/TMDS Data0+*%
X82727800Y-71932800D03*
%TO.N,/TMDS Data0 shield*%
X82931000Y-74218800D03*
X83058000Y-64973200D03*
%TO.N,/TMDS Data1-*%
X81915000Y-70739000D03*
%TO.N,/TMDS Data1+*%
X81534000Y-71932800D03*
%TO.N,/TMDS Data1 shield*%
X81737200Y-74218800D03*
X81559400Y-64947800D03*
%TO.N,/TMDS Data2 shield*%
X80518000Y-74218800D03*
X80060800Y-64947800D03*
%TO.N,/TMDS_Data2+*%
X80340200Y-71932800D03*
%TO.N,/TMDS_Data2-*%
X80441800Y-70713600D03*
%TD*%
M02*
