%TF.GenerationSoftware,KiCad,Pcbnew,(6.0.2)*%
%TF.CreationDate,2022-03-04T15:26:31-05:00*%
%TF.ProjectId,Amiga500 Mod PCB Rev A,416d6967-6135-4303-9020-4d6f64205043,rev?*%
%TF.SameCoordinates,Original*%
%TF.FileFunction,Copper,L1,Top*%
%TF.FilePolarity,Positive*%
%FSLAX46Y46*%
G04 Gerber Fmt 4.6, Leading zero omitted, Abs format (unit mm)*
G04 Created by KiCad (PCBNEW (6.0.2)) date 2022-03-04 15:26:31*
%MOMM*%
%LPD*%
G01*
G04 APERTURE LIST*
G04 Aperture macros list*
%AMRoundRect*
0 Rectangle with rounded corners*
0 $1 Rounding radius*
0 $2 $3 $4 $5 $6 $7 $8 $9 X,Y pos of 4 corners*
0 Add a 4 corners polygon primitive as box body*
4,1,4,$2,$3,$4,$5,$6,$7,$8,$9,$2,$3,0*
0 Add four circle primitives for the rounded corners*
1,1,$1+$1,$2,$3*
1,1,$1+$1,$4,$5*
1,1,$1+$1,$6,$7*
1,1,$1+$1,$8,$9*
0 Add four rect primitives between the rounded corners*
20,1,$1+$1,$2,$3,$4,$5,0*
20,1,$1+$1,$4,$5,$6,$7,0*
20,1,$1+$1,$6,$7,$8,$9,0*
20,1,$1+$1,$8,$9,$2,$3,0*%
G04 Aperture macros list end*
%TA.AperFunction,ComponentPad*%
%ADD10C,1.600000*%
%TD*%
%TA.AperFunction,SMDPad,CuDef*%
%ADD11R,1.200000X1.400000*%
%TD*%
%TA.AperFunction,SMDPad,CuDef*%
%ADD12C,0.500000*%
%TD*%
%TA.AperFunction,SMDPad,CuDef*%
%ADD13R,0.280000X1.500000*%
%TD*%
%TA.AperFunction,ComponentPad*%
%ADD14C,1.900000*%
%TD*%
%TA.AperFunction,ComponentPad*%
%ADD15C,3.048000*%
%TD*%
%TA.AperFunction,ComponentPad*%
%ADD16R,1.700000X1.700000*%
%TD*%
%TA.AperFunction,ComponentPad*%
%ADD17O,1.700000X1.700000*%
%TD*%
%TA.AperFunction,SMDPad,CuDef*%
%ADD18RoundRect,0.508000X1.397000X0.508000X-1.397000X0.508000X-1.397000X-0.508000X1.397000X-0.508000X0*%
%TD*%
%TA.AperFunction,SMDPad,CuDef*%
%ADD19RoundRect,0.508000X-0.508000X1.117600X-0.508000X-1.117600X0.508000X-1.117600X0.508000X1.117600X0*%
%TD*%
%TA.AperFunction,ComponentPad*%
%ADD20O,1.450000X2.900000*%
%TD*%
%TA.AperFunction,ViaPad*%
%ADD21C,0.609600*%
%TD*%
%TA.AperFunction,Conductor*%
%ADD22C,0.203200*%
%TD*%
%TA.AperFunction,Conductor*%
%ADD23C,0.304800*%
%TD*%
%TA.AperFunction,Conductor*%
%ADD24C,0.279400*%
%TD*%
%TA.AperFunction,Conductor*%
%ADD25C,0.200000*%
%TD*%
G04 APERTURE END LIST*
D10*
%TO.P,SW2,6*%
%TO.N,N/C*%
X106506000Y-59182000D03*
%TO.P,SW2,5*%
X114506000Y-59182000D03*
D11*
%TO.P,SW2,1,1*%
%TO.N,Net-(J4-Pad1)*%
X115506000Y-61382000D03*
%TO.P,SW2,2,2*%
%TO.N,Net-(J4-Pad2)*%
X113506000Y-56982000D03*
%TO.P,SW2,3,3*%
%TO.N,Net-(J4-Pad3)*%
X109506000Y-56982000D03*
%TO.P,SW2,4,4*%
%TO.N,Net-(J4-Pad4)*%
X107506000Y-61382000D03*
%TD*%
D12*
%TO.P,FID1,*%
%TO.N,*%
X69850000Y-73660000D03*
%TD*%
D13*
%TO.P,J1,1,1*%
%TO.N,/TMDS_Data2+*%
X79570000Y-66035000D03*
%TO.P,J1,2,2*%
%TO.N,/TMDS Data2 shield*%
X80070000Y-66035000D03*
%TO.P,J1,3,3*%
%TO.N,/TMDS_Data2-*%
X80570000Y-66035000D03*
%TO.P,J1,4,4*%
%TO.N,/TMDS Data1+*%
X81070000Y-66035000D03*
%TO.P,J1,5,5*%
%TO.N,/TMDS Data1 shield*%
X81570000Y-66035000D03*
%TO.P,J1,6,6*%
%TO.N,/TMDS Data1-*%
X82070000Y-66035000D03*
%TO.P,J1,7,7*%
%TO.N,/TMDS Data0+*%
X82570000Y-66035000D03*
%TO.P,J1,8,8*%
%TO.N,/TMDS Data0 shield*%
X83070000Y-66035000D03*
%TO.P,J1,9,9*%
%TO.N,/TMDS Data0-*%
X83570000Y-66035000D03*
%TO.P,J1,10,10*%
%TO.N,/TMDS Clock+*%
X84070000Y-66035000D03*
%TO.P,J1,11,11*%
%TO.N,/TMDS Clock shield*%
X84570000Y-66035000D03*
%TO.P,J1,12,12*%
%TO.N,/TMDS Clock-*%
X85070000Y-66035000D03*
%TO.P,J1,13,13*%
%TO.N,/CEC*%
X85570000Y-66035000D03*
%TO.P,J1,14,14*%
%TO.N,/HEAC+*%
X86070000Y-66035000D03*
%TO.P,J1,15,15*%
%TO.N,/SCL*%
X86570000Y-66035000D03*
%TO.P,J1,16,16*%
%TO.N,/SDA*%
X87070000Y-66035000D03*
%TO.P,J1,17,17*%
%TO.N,/CEC Ground*%
X87570000Y-66035000D03*
%TO.P,J1,18,18*%
%TO.N,/+5V Power*%
X88070000Y-66035000D03*
%TO.P,J1,19,19*%
%TO.N,/Plug Detect*%
X88570000Y-66035000D03*
D14*
%TO.P,J1,S1,S1*%
%TO.N,GNDREF*%
X76570000Y-65335000D03*
%TO.P,J1,S2,S2*%
X75970000Y-59435000D03*
%TO.P,J1,S3,S3*%
X91670000Y-59435000D03*
%TO.P,J1,S4,S4*%
X91070000Y-65335000D03*
%TD*%
D15*
%TO.P,J7,1,Pin_1*%
%TO.N,unconnected-(J7-Pad1)*%
X134366000Y-59097700D03*
%TO.P,J7,2,Pin_2*%
%TO.N,unconnected-(J7-Pad2)*%
X129286000Y-59097700D03*
%TO.P,J7,3,Pin_3*%
%TO.N,unconnected-(J7-Pad3)*%
X129286000Y-64533300D03*
%TO.P,J7,4,Pin_4*%
%TO.N,unconnected-(J7-Pad4)*%
X134366000Y-64533300D03*
%TD*%
%TO.P,J6,1,Pin_1*%
%TO.N,unconnected-(J6-Pad1)*%
X72644000Y-59097700D03*
%TO.P,J6,2,Pin_2*%
%TO.N,unconnected-(J6-Pad2)*%
X67564000Y-59097700D03*
%TO.P,J6,3,Pin_3*%
%TO.N,unconnected-(J6-Pad3)*%
X67564000Y-64533300D03*
%TO.P,J6,4,Pin_4*%
%TO.N,unconnected-(J6-Pad4)*%
X72644000Y-64533300D03*
%TD*%
D16*
%TO.P,J3,1,Pin_1*%
%TO.N,Net-(J3-Pad1)*%
X100589004Y-72136000D03*
D17*
%TO.P,J3,2,Pin_2*%
%TO.N,Net-(J3-Pad2)*%
X98049000Y-72136000D03*
%TD*%
D18*
%TO.P,SW1,1,1*%
%TO.N,Net-(J3-Pad1)*%
X102997000Y-65562000D03*
%TO.P,SW1,2,2*%
%TO.N,Net-(J3-Pad2)*%
X95631000Y-65562000D03*
D19*
%TO.P,SW1,3*%
%TO.N,N/C*%
X101092000Y-57942000D03*
%TO.P,SW1,4*%
X97536000Y-57942000D03*
%TD*%
D16*
%TO.P,J5,1,Pin_1*%
%TO.N,Net-(J5-Pad1)*%
X130038000Y-72136000D03*
D17*
%TO.P,J5,2,Pin_2*%
%TO.N,Net-(J5-Pad2)*%
X127498000Y-72136000D03*
%TO.P,J5,3,Pin_3*%
%TO.N,Net-(J5-Pad3)*%
X124958000Y-72136000D03*
%TO.P,J5,4,Pin_4*%
%TO.N,Net-(J5-Pad4)*%
X122418000Y-72136000D03*
%TD*%
D11*
%TO.P,SW3,1,A*%
%TO.N,Net-(J5-Pad3)*%
X125436000Y-56982000D03*
%TO.P,SW3,2,B*%
%TO.N,Net-(J5-Pad1)*%
X122936000Y-56982000D03*
%TO.P,SW3,3,C*%
%TO.N,Net-(J5-Pad4)*%
X120436000Y-56982000D03*
%TO.P,SW3,4,A*%
X125436000Y-61382000D03*
%TO.P,SW3,5,B*%
%TO.N,Net-(J5-Pad2)*%
X122936000Y-61382000D03*
%TO.P,SW3,6,C*%
%TO.N,Net-(J5-Pad3)*%
X120436000Y-61382000D03*
%TD*%
D16*
%TO.P,J4,1,Pin_1*%
%TO.N,Net-(J4-Pad1)*%
X115306000Y-72136000D03*
D17*
%TO.P,J4,2,Pin_2*%
%TO.N,Net-(J4-Pad2)*%
X112766000Y-72136000D03*
%TO.P,J4,3,Pin_3*%
%TO.N,Net-(J4-Pad3)*%
X110226000Y-72136000D03*
%TO.P,J4,4,Pin_4*%
%TO.N,Net-(J4-Pad4)*%
X107686000Y-72136000D03*
%TD*%
D20*
%TO.P,J2,S3,SHIELD*%
%TO.N,GNDREF*%
X89245000Y-77470000D03*
%TO.P,J2,S4,SHIELD*%
X78395000Y-77470000D03*
%TD*%
D21*
%TO.N,Net-(J5-Pad4)*%
X125425200Y-60071000D03*
X121412000Y-58039000D03*
X125476000Y-67310000D03*
%TO.N,Net-(J5-Pad1)*%
X122936000Y-58039000D03*
%TO.N,/Plug Detect*%
X87986678Y-71984678D03*
%TO.N,/+5V Power*%
X86944200Y-74218800D03*
%TO.N,/HEAC+*%
X86741000Y-71983600D03*
%TO.N,/SDA*%
X87122000Y-71196200D03*
%TO.N,/SCL*%
X86690200Y-70510400D03*
%TO.N,/CEC*%
X85115400Y-71932800D03*
%TO.N,/CEC Ground*%
X85318600Y-74218800D03*
X87579189Y-67265782D03*
%TO.N,/TMDS Clock-*%
X84709000Y-70688200D03*
%TO.N,/TMDS Clock+*%
X83921600Y-71932800D03*
%TO.N,/TMDS Clock shield*%
X84124800Y-74218800D03*
X84556600Y-64973200D03*
%TO.N,/TMDS Data0-*%
X83134200Y-70713600D03*
%TO.N,/TMDS Data0+*%
X82727800Y-71932800D03*
%TO.N,/TMDS Data0 shield*%
X82931000Y-74218800D03*
X83058000Y-64973200D03*
%TO.N,/TMDS Data1-*%
X81915000Y-70739000D03*
%TO.N,/TMDS Data1+*%
X81534000Y-71932800D03*
%TO.N,/TMDS Data1 shield*%
X81737200Y-74218800D03*
X81559400Y-64947800D03*
%TO.N,/TMDS Data2 shield*%
X80518000Y-74218800D03*
X80060800Y-64947800D03*
%TO.N,/TMDS_Data2+*%
X80340200Y-71932800D03*
%TO.N,/TMDS_Data2-*%
X80441800Y-70713600D03*
%TD*%
D22*
%TO.N,/+5V Power*%
X87350600Y-73812400D02*
X87350600Y-71805800D01*
X87350600Y-71805800D02*
X88137500Y-71018900D01*
X88137500Y-71018900D02*
X88137500Y-66928500D01*
X88137500Y-66928500D02*
X88061800Y-66852800D01*
X86944200Y-74218800D02*
X87350600Y-73812400D01*
%TO.N,Net-(J5-Pad3)*%
X120436000Y-61174000D02*
X120436000Y-67614000D01*
X122555000Y-59055000D02*
X120436000Y-61174000D01*
X120436000Y-67614000D02*
X124958000Y-72136000D01*
X123444000Y-59055000D02*
X122555000Y-59055000D01*
X125436000Y-57063000D02*
X123444000Y-59055000D01*
X125436000Y-56936000D02*
X125436000Y-57063000D01*
%TO.N,Net-(J5-Pad2)*%
X122936000Y-67574000D02*
X122936000Y-61382000D01*
X127498000Y-72136000D02*
X122936000Y-67574000D01*
%TO.N,Net-(J5-Pad4)*%
X125436000Y-60081800D02*
X125436000Y-61128000D01*
X125425200Y-60071000D02*
X125436000Y-60081800D01*
D23*
%TO.N,Net-(J5-Pad1)*%
X122936000Y-58039000D02*
X122936000Y-56982000D01*
D22*
%TO.N,Net-(J5-Pad4)*%
X121412000Y-58039000D02*
X120436000Y-57063000D01*
%TO.N,Net-(J4-Pad3)*%
X110226000Y-72136000D02*
X110226000Y-57702000D01*
X110226000Y-57702000D02*
X109506000Y-56982000D01*
%TO.N,Net-(J4-Pad2)*%
X112766000Y-57722000D02*
X113506000Y-56982000D01*
X112766000Y-72136000D02*
X112766000Y-57722000D01*
%TO.N,Net-(J3-Pad1)*%
X102459000Y-65181000D02*
X102997000Y-65181000D01*
X100589000Y-72136000D02*
X100589000Y-67051000D01*
X100589000Y-67051000D02*
X102459000Y-65181000D01*
%TO.N,Net-(J3-Pad2)*%
X96281000Y-65181000D02*
X95631000Y-65181000D01*
X98049000Y-66949000D02*
X96281000Y-65181000D01*
X98049000Y-72136000D02*
X98049000Y-66949000D01*
%TO.N,Net-(J5-Pad4)*%
X125476000Y-67310000D02*
X125436000Y-67270000D01*
X125436000Y-67270000D02*
X125436000Y-60620000D01*
%TO.N,Net-(J4-Pad1)*%
X115306000Y-72136000D02*
X115306000Y-60820000D01*
%TO.N,Net-(J4-Pad4)*%
X107686000Y-72136000D02*
X107686000Y-60800000D01*
%TO.N,/Plug Detect*%
X87986678Y-71984678D02*
X88570000Y-71401356D01*
X88570000Y-71401356D02*
X88570000Y-66035000D01*
D24*
%TO.N,/+5V Power*%
X88070004Y-66835604D02*
X88070004Y-66034996D01*
D22*
%TO.N,/SDA*%
X87020889Y-67053339D02*
X87070114Y-67004114D01*
X87249000Y-67743972D02*
X87020889Y-67515861D01*
X87249000Y-71069200D02*
X87249000Y-67743972D01*
X87122000Y-71196200D02*
X87249000Y-71069200D01*
X87020889Y-67515861D02*
X87020889Y-67053339D01*
%TO.N,/HEAC+*%
X86070000Y-71312600D02*
X86070000Y-66035000D01*
X86741000Y-71983600D02*
X86070000Y-71312600D01*
%TO.N,/CEC Ground*%
X87579200Y-67265771D02*
X87579200Y-66979800D01*
X87579189Y-67265782D02*
X87579200Y-67265771D01*
D24*
%TO.N,/SDA*%
X87070108Y-66927908D02*
X87070108Y-66035123D01*
X87071200Y-66929000D02*
X87070108Y-66927908D01*
D22*
X87070114Y-66035114D02*
X87070000Y-66035000D01*
%TO.N,/SCL*%
X86690200Y-67945000D02*
X86570000Y-67824800D01*
D24*
X86570007Y-67824807D02*
X86570007Y-66034996D01*
D22*
X86690200Y-70510400D02*
X86690200Y-67945000D01*
%TO.N,/CEC*%
X85570000Y-71478200D02*
X85570000Y-66035000D01*
X85115400Y-71932800D02*
X85570000Y-71478200D01*
D24*
%TO.N,/CEC Ground*%
X87579200Y-66979800D02*
X87579200Y-66044191D01*
D22*
X87579200Y-66044200D02*
X87570000Y-66035000D01*
D25*
%TO.N,/TMDS Clock+*%
X83921600Y-70688291D02*
X84392200Y-70217691D01*
X84392200Y-70217691D02*
X84392200Y-69952602D01*
X83921600Y-71932800D02*
X83921600Y-70688291D01*
%TO.N,/TMDS Clock-*%
X84709000Y-70688200D02*
X84747800Y-70649400D01*
X84747800Y-70649400D02*
X84747800Y-69952602D01*
D22*
X85070000Y-67160001D02*
X84747800Y-67482201D01*
%TO.N,/TMDS Clock+*%
X84392200Y-67482201D02*
X84392200Y-69952602D01*
%TO.N,/TMDS Clock-*%
X84747800Y-67482201D02*
X84747800Y-69952602D01*
%TO.N,/TMDS Clock+*%
X84070000Y-67160001D02*
X84392200Y-67482201D01*
D24*
X84070012Y-66034996D02*
X84070012Y-67160013D01*
%TO.N,/TMDS Clock-*%
X85070010Y-66034996D02*
X85070010Y-67160013D01*
D25*
%TO.N,/TMDS Data0-*%
X83247800Y-70600000D02*
X83247800Y-69984896D01*
X83134200Y-70713600D02*
X83247800Y-70600000D01*
%TO.N,/TMDS Data0+*%
X82892200Y-70142800D02*
X82892200Y-69984896D01*
X82577489Y-70457511D02*
X82892200Y-70142800D01*
X82577489Y-71782489D02*
X82577489Y-70457511D01*
X82727800Y-71932800D02*
X82577489Y-71782489D01*
D22*
%TO.N,/TMDS Data0-*%
X83247800Y-67482201D02*
X83247800Y-69984896D01*
X83570000Y-67160001D02*
X83247800Y-67482201D01*
D24*
X83569988Y-66034996D02*
X83569988Y-67160013D01*
D22*
%TO.N,/TMDS Data0+*%
X82892200Y-67482201D02*
X82892200Y-69984896D01*
D24*
X82569990Y-66034996D02*
X82569990Y-67160013D01*
D22*
X82570000Y-67160001D02*
X82892200Y-67482201D01*
%TO.N,/TMDS Data1-*%
X81785448Y-70739000D02*
X81915000Y-70739000D01*
X81747800Y-70701352D02*
X81785448Y-70739000D01*
X81747800Y-67482201D02*
X81747800Y-70701352D01*
X82070000Y-67160001D02*
X81747800Y-67482201D01*
%TO.N,/TMDS Data1+*%
X81534000Y-71147572D02*
X81534000Y-71932800D01*
X81356689Y-70970261D02*
X81534000Y-71147572D01*
D24*
%TO.N,/TMDS Data1-*%
X82069991Y-66034996D02*
X82069991Y-67160013D01*
D22*
%TO.N,/TMDS Data1+*%
X81392200Y-67482201D02*
X81392200Y-70472228D01*
X81070000Y-67160001D02*
X81392200Y-67482201D01*
X81392200Y-70472228D02*
X81356689Y-70507739D01*
X81356689Y-70507739D02*
X81356689Y-70970261D01*
D24*
X81069993Y-66034996D02*
X81069993Y-67160013D01*
D22*
%TO.N,/TMDS_Data2-*%
X80247800Y-67482201D02*
X80247800Y-70519600D01*
%TO.N,/TMDS_Data2+*%
X79892200Y-71359197D02*
X80340200Y-71807197D01*
D24*
%TO.N,/TMDS_Data2-*%
X80569994Y-66034996D02*
X80569994Y-67160013D01*
D22*
%TO.N,/TMDS_Data2+*%
X79892200Y-70953572D02*
X79892200Y-71359197D01*
X79883489Y-70944861D02*
X79892200Y-70953572D01*
X79883489Y-67473490D02*
X79883489Y-70944861D01*
%TO.N,/TMDS_Data2-*%
X80247800Y-70519600D02*
X80295000Y-70566800D01*
%TO.N,/TMDS_Data2+*%
X79570000Y-67160001D02*
X79883489Y-67473490D01*
D24*
X79569996Y-66034996D02*
X79569996Y-67160013D01*
D22*
%TO.N,/TMDS_Data2-*%
X80570000Y-67160001D02*
X80247800Y-67482201D01*
%TO.N,/TMDS Clock shield*%
X84570000Y-64986600D02*
X84556600Y-64973200D01*
D24*
X84570011Y-66034996D02*
X84570011Y-64986611D01*
D25*
%TO.N,/TMDS_Data2+*%
X80340200Y-71932800D02*
X80340200Y-71807197D01*
%TO.N,/TMDS_Data2-*%
X80441800Y-70713600D02*
X80295000Y-70566800D01*
D22*
%TO.N,/TMDS Data0 shield*%
X83070000Y-64985200D02*
X83058000Y-64973200D01*
X83070000Y-66035000D02*
X83070000Y-64985200D01*
%TO.N,/TMDS Data1 shield*%
X81570000Y-64958400D02*
X81559400Y-64947800D01*
D24*
X81569992Y-66034996D02*
X81569992Y-64958392D01*
%TO.N,/TMDS Data2 shield*%
X80069995Y-66034996D02*
X80069995Y-64956995D01*
D22*
X80070000Y-64957000D02*
X80060800Y-64947800D01*
%TD*%
%TA.AperFunction,Conductor*%
%TO.N,GNDREF*%
G36*
X92922531Y-56407213D02*
G01*
X92959076Y-56457513D01*
X92964000Y-56488600D01*
X92964000Y-58787104D01*
X92944787Y-58846235D01*
X92894487Y-58882780D01*
X92832313Y-58882780D01*
X92782013Y-58846235D01*
X92772226Y-58829620D01*
X92762699Y-58809190D01*
X92758321Y-58801607D01*
X92668865Y-58673850D01*
X92658043Y-58665695D01*
X92657401Y-58665683D01*
X92650991Y-58669535D01*
X91896794Y-59423732D01*
X91890639Y-59435811D01*
X91891449Y-59440923D01*
X92648459Y-60197933D01*
X92660538Y-60204088D01*
X92661170Y-60203988D01*
X92666811Y-60199084D01*
X92758321Y-60068393D01*
X92762699Y-60060810D01*
X92772226Y-60040380D01*
X92814628Y-59994909D01*
X92875660Y-59983046D01*
X92932009Y-60009322D01*
X92962152Y-60063701D01*
X92964000Y-60082896D01*
X92964000Y-80163400D01*
X92944787Y-80222531D01*
X92894487Y-80259076D01*
X92863400Y-80264000D01*
X74776600Y-80264000D01*
X74717469Y-80244787D01*
X74680924Y-80194487D01*
X74676000Y-80163400D01*
X74676000Y-78243362D01*
X77365200Y-78243362D01*
X77365440Y-78248267D01*
X77379444Y-78391098D01*
X77381346Y-78400698D01*
X77436870Y-78584606D01*
X77440609Y-78593677D01*
X77530796Y-78763294D01*
X77536215Y-78771451D01*
X77657641Y-78920334D01*
X77664536Y-78927278D01*
X77812569Y-79049740D01*
X77820681Y-79055212D01*
X77989682Y-79146591D01*
X77998702Y-79150382D01*
X78182229Y-79207193D01*
X78191820Y-79209162D01*
X78226753Y-79212834D01*
X78240013Y-79210015D01*
X78241705Y-79208136D01*
X78242600Y-79203924D01*
X78242600Y-79199298D01*
X78547400Y-79199298D01*
X78551588Y-79212188D01*
X78553941Y-79213897D01*
X78557576Y-79214305D01*
X78583999Y-79211900D01*
X78593619Y-79210065D01*
X78777918Y-79155823D01*
X78786995Y-79152156D01*
X78957251Y-79063147D01*
X78965441Y-79057788D01*
X79115167Y-78937406D01*
X79122163Y-78930554D01*
X79245646Y-78783392D01*
X79251186Y-78775302D01*
X79343734Y-78606958D01*
X79347595Y-78597951D01*
X79405683Y-78414835D01*
X79407720Y-78405250D01*
X79424487Y-78255766D01*
X79424800Y-78250164D01*
X79424800Y-78243362D01*
X88215200Y-78243362D01*
X88215440Y-78248267D01*
X88229444Y-78391098D01*
X88231346Y-78400698D01*
X88286870Y-78584606D01*
X88290609Y-78593677D01*
X88380796Y-78763294D01*
X88386215Y-78771451D01*
X88507641Y-78920334D01*
X88514536Y-78927278D01*
X88662569Y-79049740D01*
X88670681Y-79055212D01*
X88839682Y-79146591D01*
X88848702Y-79150382D01*
X89032229Y-79207193D01*
X89041820Y-79209162D01*
X89076753Y-79212834D01*
X89090013Y-79210015D01*
X89091705Y-79208136D01*
X89092600Y-79203924D01*
X89092600Y-79199298D01*
X89397400Y-79199298D01*
X89401588Y-79212188D01*
X89403941Y-79213897D01*
X89407576Y-79214305D01*
X89433999Y-79211900D01*
X89443619Y-79210065D01*
X89627918Y-79155823D01*
X89636995Y-79152156D01*
X89807251Y-79063147D01*
X89815441Y-79057788D01*
X89965167Y-78937406D01*
X89972163Y-78930554D01*
X90095646Y-78783392D01*
X90101186Y-78775302D01*
X90193734Y-78606958D01*
X90197595Y-78597951D01*
X90255683Y-78414835D01*
X90257720Y-78405250D01*
X90274487Y-78255766D01*
X90274800Y-78250164D01*
X90274800Y-77638333D01*
X90270612Y-77625443D01*
X90266423Y-77622400D01*
X89413333Y-77622400D01*
X89400443Y-77626588D01*
X89397400Y-77630777D01*
X89397400Y-79199298D01*
X89092600Y-79199298D01*
X89092600Y-77638333D01*
X89088412Y-77625443D01*
X89084223Y-77622400D01*
X88231133Y-77622400D01*
X88218243Y-77626588D01*
X88215200Y-77630777D01*
X88215200Y-78243362D01*
X79424800Y-78243362D01*
X79424800Y-77638333D01*
X79420612Y-77625443D01*
X79416423Y-77622400D01*
X78563333Y-77622400D01*
X78550443Y-77626588D01*
X78547400Y-77630777D01*
X78547400Y-79199298D01*
X78242600Y-79199298D01*
X78242600Y-77638333D01*
X78238412Y-77625443D01*
X78234223Y-77622400D01*
X77381133Y-77622400D01*
X77368243Y-77626588D01*
X77365200Y-77630777D01*
X77365200Y-78243362D01*
X74676000Y-78243362D01*
X74676000Y-77301667D01*
X77365200Y-77301667D01*
X77369388Y-77314557D01*
X77373577Y-77317600D01*
X78226667Y-77317600D01*
X78239557Y-77313412D01*
X78242600Y-77309223D01*
X78242600Y-77301667D01*
X78547400Y-77301667D01*
X78551588Y-77314557D01*
X78555777Y-77317600D01*
X79408867Y-77317600D01*
X79421757Y-77313412D01*
X79424800Y-77309223D01*
X79424800Y-77301667D01*
X88215200Y-77301667D01*
X88219388Y-77314557D01*
X88223577Y-77317600D01*
X89076667Y-77317600D01*
X89089557Y-77313412D01*
X89092600Y-77309223D01*
X89092600Y-77301667D01*
X89397400Y-77301667D01*
X89401588Y-77314557D01*
X89405777Y-77317600D01*
X90258867Y-77317600D01*
X90271757Y-77313412D01*
X90274800Y-77309223D01*
X90274800Y-76696638D01*
X90274560Y-76691733D01*
X90260556Y-76548902D01*
X90258654Y-76539302D01*
X90203130Y-76355394D01*
X90199391Y-76346323D01*
X90109204Y-76176706D01*
X90103785Y-76168549D01*
X89982359Y-76019666D01*
X89975464Y-76012722D01*
X89827431Y-75890260D01*
X89819319Y-75884788D01*
X89650318Y-75793409D01*
X89641298Y-75789618D01*
X89457771Y-75732807D01*
X89448180Y-75730838D01*
X89413247Y-75727166D01*
X89399987Y-75729985D01*
X89398295Y-75731864D01*
X89397400Y-75736076D01*
X89397400Y-77301667D01*
X89092600Y-77301667D01*
X89092600Y-75740702D01*
X89088412Y-75727812D01*
X89086059Y-75726103D01*
X89082424Y-75725695D01*
X89056001Y-75728100D01*
X89046381Y-75729935D01*
X88862082Y-75784177D01*
X88853005Y-75787844D01*
X88682749Y-75876853D01*
X88674559Y-75882212D01*
X88524833Y-76002594D01*
X88517837Y-76009446D01*
X88394354Y-76156608D01*
X88388814Y-76164698D01*
X88296266Y-76333042D01*
X88292405Y-76342049D01*
X88234317Y-76525165D01*
X88232280Y-76534750D01*
X88215513Y-76684234D01*
X88215200Y-76689836D01*
X88215200Y-77301667D01*
X79424800Y-77301667D01*
X79424800Y-76696638D01*
X79424560Y-76691733D01*
X79410556Y-76548902D01*
X79408654Y-76539302D01*
X79353130Y-76355394D01*
X79349391Y-76346323D01*
X79259204Y-76176706D01*
X79253785Y-76168549D01*
X79132359Y-76019666D01*
X79125464Y-76012722D01*
X78977431Y-75890260D01*
X78969319Y-75884788D01*
X78800318Y-75793409D01*
X78791298Y-75789618D01*
X78607771Y-75732807D01*
X78598180Y-75730838D01*
X78563247Y-75727166D01*
X78549987Y-75729985D01*
X78548295Y-75731864D01*
X78547400Y-75736076D01*
X78547400Y-77301667D01*
X78242600Y-77301667D01*
X78242600Y-75740702D01*
X78238412Y-75727812D01*
X78236059Y-75726103D01*
X78232424Y-75725695D01*
X78206001Y-75728100D01*
X78196381Y-75729935D01*
X78012082Y-75784177D01*
X78003005Y-75787844D01*
X77832749Y-75876853D01*
X77824559Y-75882212D01*
X77674833Y-76002594D01*
X77667837Y-76009446D01*
X77544354Y-76156608D01*
X77538814Y-76164698D01*
X77446266Y-76333042D01*
X77442405Y-76342049D01*
X77384317Y-76525165D01*
X77382280Y-76534750D01*
X77365513Y-76684234D01*
X77365200Y-76689836D01*
X77365200Y-77301667D01*
X74676000Y-77301667D01*
X74676000Y-74211292D01*
X79801112Y-74211292D01*
X79801777Y-74217316D01*
X79801777Y-74217320D01*
X79803598Y-74233814D01*
X79820015Y-74382511D01*
X79879213Y-74544278D01*
X79975290Y-74687255D01*
X80102698Y-74803187D01*
X80254082Y-74885382D01*
X80259952Y-74886922D01*
X80414835Y-74927555D01*
X80414836Y-74927555D01*
X80420702Y-74929094D01*
X80504278Y-74930407D01*
X80586876Y-74931705D01*
X80586878Y-74931705D01*
X80592939Y-74931800D01*
X80598850Y-74930446D01*
X80598852Y-74930446D01*
X80754940Y-74894697D01*
X80754943Y-74894696D01*
X80760850Y-74893343D01*
X80914741Y-74815944D01*
X80919353Y-74812005D01*
X80919356Y-74812003D01*
X81041116Y-74708010D01*
X81045728Y-74704071D01*
X81049266Y-74699147D01*
X81053374Y-74694680D01*
X81055554Y-74696685D01*
X81096134Y-74666920D01*
X81158307Y-74666638D01*
X81195360Y-74688047D01*
X81317414Y-74799107D01*
X81321898Y-74803187D01*
X81473282Y-74885382D01*
X81479152Y-74886922D01*
X81634035Y-74927555D01*
X81634036Y-74927555D01*
X81639902Y-74929094D01*
X81723478Y-74930407D01*
X81806076Y-74931705D01*
X81806078Y-74931705D01*
X81812139Y-74931800D01*
X81818050Y-74930446D01*
X81818052Y-74930446D01*
X81974140Y-74894697D01*
X81974143Y-74894696D01*
X81980050Y-74893343D01*
X82133941Y-74815944D01*
X82138553Y-74812005D01*
X82138556Y-74812003D01*
X82199435Y-74760007D01*
X82264928Y-74704071D01*
X82265412Y-74704638D01*
X82315439Y-74676453D01*
X82377201Y-74683602D01*
X82403024Y-74700662D01*
X82411102Y-74708012D01*
X82515698Y-74803187D01*
X82667082Y-74885382D01*
X82672952Y-74886922D01*
X82827835Y-74927555D01*
X82827836Y-74927555D01*
X82833702Y-74929094D01*
X82917278Y-74930407D01*
X82999876Y-74931705D01*
X82999878Y-74931705D01*
X83005939Y-74931800D01*
X83011850Y-74930446D01*
X83011852Y-74930446D01*
X83167940Y-74894697D01*
X83167943Y-74894696D01*
X83173850Y-74893343D01*
X83327741Y-74815944D01*
X83332353Y-74812005D01*
X83332356Y-74812003D01*
X83393235Y-74760007D01*
X83458728Y-74704071D01*
X83459212Y-74704638D01*
X83509239Y-74676453D01*
X83571001Y-74683602D01*
X83596824Y-74700662D01*
X83604902Y-74708012D01*
X83709498Y-74803187D01*
X83860882Y-74885382D01*
X83866752Y-74886922D01*
X84021635Y-74927555D01*
X84021636Y-74927555D01*
X84027502Y-74929094D01*
X84111078Y-74930407D01*
X84193676Y-74931705D01*
X84193678Y-74931705D01*
X84199739Y-74931800D01*
X84205650Y-74930446D01*
X84205652Y-74930446D01*
X84361740Y-74894697D01*
X84361743Y-74894696D01*
X84367650Y-74893343D01*
X84521541Y-74815944D01*
X84526153Y-74812005D01*
X84526156Y-74812003D01*
X84587035Y-74760007D01*
X84652528Y-74704071D01*
X84653012Y-74704638D01*
X84703039Y-74676453D01*
X84764801Y-74683602D01*
X84790624Y-74700662D01*
X84798702Y-74708012D01*
X84903298Y-74803187D01*
X85054682Y-74885382D01*
X85060552Y-74886922D01*
X85215435Y-74927555D01*
X85215436Y-74927555D01*
X85221302Y-74929094D01*
X85304878Y-74930407D01*
X85387476Y-74931705D01*
X85387478Y-74931705D01*
X85393539Y-74931800D01*
X85399450Y-74930446D01*
X85399452Y-74930446D01*
X85555540Y-74894697D01*
X85555543Y-74894696D01*
X85561450Y-74893343D01*
X85715341Y-74815944D01*
X85719953Y-74812005D01*
X85719956Y-74812003D01*
X85841716Y-74708010D01*
X85846328Y-74704071D01*
X85946848Y-74564182D01*
X85954850Y-74544278D01*
X86008834Y-74409985D01*
X86011098Y-74404354D01*
X86032660Y-74252858D01*
X86047072Y-74223438D01*
X86042702Y-74219291D01*
X86031240Y-74183375D01*
X86015561Y-74053811D01*
X86015561Y-74053809D01*
X86014832Y-74047789D01*
X85974904Y-73942121D01*
X85956088Y-73892327D01*
X85956087Y-73892326D01*
X85953943Y-73886651D01*
X85856375Y-73744688D01*
X85727760Y-73630096D01*
X85575524Y-73549491D01*
X85408455Y-73507526D01*
X85402398Y-73507494D01*
X85402396Y-73507494D01*
X85318294Y-73507054D01*
X85236198Y-73506624D01*
X85230301Y-73508040D01*
X85230299Y-73508040D01*
X85148314Y-73527723D01*
X85068699Y-73546837D01*
X85063313Y-73549617D01*
X85063310Y-73549618D01*
X84921013Y-73623064D01*
X84915627Y-73625844D01*
X84911062Y-73629826D01*
X84911061Y-73629827D01*
X84787201Y-73737876D01*
X84730011Y-73762269D01*
X84669406Y-73748388D01*
X84654147Y-73737179D01*
X84538489Y-73634131D01*
X84538488Y-73634130D01*
X84533960Y-73630096D01*
X84381724Y-73549491D01*
X84214655Y-73507526D01*
X84208598Y-73507494D01*
X84208596Y-73507494D01*
X84124494Y-73507054D01*
X84042398Y-73506624D01*
X84036501Y-73508040D01*
X84036499Y-73508040D01*
X83954514Y-73527723D01*
X83874899Y-73546837D01*
X83869513Y-73549617D01*
X83869510Y-73549618D01*
X83727213Y-73623064D01*
X83721827Y-73625844D01*
X83717262Y-73629826D01*
X83717261Y-73629827D01*
X83593401Y-73737876D01*
X83536211Y-73762269D01*
X83475606Y-73748388D01*
X83460347Y-73737179D01*
X83344689Y-73634131D01*
X83344688Y-73634130D01*
X83340160Y-73630096D01*
X83187924Y-73549491D01*
X83020855Y-73507526D01*
X83014798Y-73507494D01*
X83014796Y-73507494D01*
X82930694Y-73507054D01*
X82848598Y-73506624D01*
X82842701Y-73508040D01*
X82842699Y-73508040D01*
X82760714Y-73527723D01*
X82681099Y-73546837D01*
X82675713Y-73549617D01*
X82675710Y-73549618D01*
X82533413Y-73623064D01*
X82528027Y-73625844D01*
X82523462Y-73629826D01*
X82523461Y-73629827D01*
X82399601Y-73737876D01*
X82342411Y-73762269D01*
X82281806Y-73748388D01*
X82266547Y-73737179D01*
X82150889Y-73634131D01*
X82150888Y-73634130D01*
X82146360Y-73630096D01*
X81994124Y-73549491D01*
X81827055Y-73507526D01*
X81820998Y-73507494D01*
X81820996Y-73507494D01*
X81736894Y-73507054D01*
X81654798Y-73506624D01*
X81648901Y-73508040D01*
X81648899Y-73508040D01*
X81566914Y-73527723D01*
X81487299Y-73546837D01*
X81481913Y-73549617D01*
X81481910Y-73549618D01*
X81339613Y-73623064D01*
X81334227Y-73625844D01*
X81204419Y-73739082D01*
X81201835Y-73742759D01*
X81148518Y-73773542D01*
X81086685Y-73767043D01*
X81055965Y-73744475D01*
X81055775Y-73744688D01*
X80927160Y-73630096D01*
X80774924Y-73549491D01*
X80607855Y-73507526D01*
X80601798Y-73507494D01*
X80601796Y-73507494D01*
X80517694Y-73507054D01*
X80435598Y-73506624D01*
X80429701Y-73508040D01*
X80429699Y-73508040D01*
X80347714Y-73527723D01*
X80268099Y-73546837D01*
X80262713Y-73549617D01*
X80262710Y-73549618D01*
X80120413Y-73623064D01*
X80115027Y-73625844D01*
X79985219Y-73739082D01*
X79953223Y-73784608D01*
X79889658Y-73875052D01*
X79889656Y-73875056D01*
X79886170Y-73880016D01*
X79883967Y-73885665D01*
X79883966Y-73885668D01*
X79856735Y-73955513D01*
X79823597Y-74040508D01*
X79801112Y-74211292D01*
X74676000Y-74211292D01*
X74676000Y-66817024D01*
X79023100Y-66817024D01*
X79023297Y-66818269D01*
X79023396Y-66820786D01*
X79023396Y-67197528D01*
X79038582Y-67308387D01*
X79098058Y-67445829D01*
X79192305Y-67562213D01*
X79314378Y-67648966D01*
X79320834Y-67651290D01*
X79320996Y-67651375D01*
X79364497Y-67695797D01*
X79374989Y-67740528D01*
X79374989Y-70876629D01*
X79373548Y-70889527D01*
X79373572Y-70889529D01*
X79372998Y-70896667D01*
X79371415Y-70903661D01*
X79371859Y-70910816D01*
X79374796Y-70958159D01*
X79374989Y-70964388D01*
X79374989Y-70981374D01*
X79375497Y-70984921D01*
X79375497Y-70984923D01*
X79376616Y-70992735D01*
X79377438Y-71000760D01*
X79380434Y-71049038D01*
X79381981Y-71053322D01*
X79383700Y-71070106D01*
X79383700Y-71290965D01*
X79382259Y-71303863D01*
X79382283Y-71303865D01*
X79381709Y-71311003D01*
X79380126Y-71317997D01*
X79380570Y-71325152D01*
X79383507Y-71372495D01*
X79383700Y-71378724D01*
X79383700Y-71395710D01*
X79384208Y-71399257D01*
X79384208Y-71399259D01*
X79385327Y-71407071D01*
X79386149Y-71415096D01*
X79389145Y-71463374D01*
X79391578Y-71470112D01*
X79391578Y-71470114D01*
X79392682Y-71473171D01*
X79397643Y-71493069D01*
X79399120Y-71503384D01*
X79416344Y-71541266D01*
X79419138Y-71547410D01*
X79422181Y-71554886D01*
X79438604Y-71600378D01*
X79442831Y-71606165D01*
X79442832Y-71606166D01*
X79444752Y-71608795D01*
X79455096Y-71626496D01*
X79456441Y-71629455D01*
X79456443Y-71629458D01*
X79459408Y-71635979D01*
X79464085Y-71641407D01*
X79490985Y-71672627D01*
X79496000Y-71678943D01*
X79504625Y-71690749D01*
X79516271Y-71702395D01*
X79521347Y-71707863D01*
X79554487Y-71746324D01*
X79561816Y-71751075D01*
X79578232Y-71764356D01*
X79601711Y-71787835D01*
X79629937Y-71843233D01*
X79630315Y-71872102D01*
X79624103Y-71919280D01*
X79624103Y-71919284D01*
X79623312Y-71925292D01*
X79623977Y-71931316D01*
X79623977Y-71931320D01*
X79627372Y-71962069D01*
X79642215Y-72096511D01*
X79644301Y-72102211D01*
X79671254Y-72175863D01*
X79701413Y-72258278D01*
X79797490Y-72401255D01*
X79924898Y-72517187D01*
X80076282Y-72599382D01*
X80082152Y-72600922D01*
X80237035Y-72641555D01*
X80237036Y-72641555D01*
X80242902Y-72643094D01*
X80326478Y-72644407D01*
X80409076Y-72645705D01*
X80409078Y-72645705D01*
X80415139Y-72645800D01*
X80421050Y-72644446D01*
X80421052Y-72644446D01*
X80577140Y-72608697D01*
X80577143Y-72608696D01*
X80583050Y-72607343D01*
X80736941Y-72529944D01*
X80741553Y-72526005D01*
X80741556Y-72526003D01*
X80823357Y-72456138D01*
X80867928Y-72418071D01*
X80868412Y-72418638D01*
X80918439Y-72390453D01*
X80980201Y-72397602D01*
X81006024Y-72414662D01*
X81066784Y-72469949D01*
X81118698Y-72517187D01*
X81270082Y-72599382D01*
X81275952Y-72600922D01*
X81430835Y-72641555D01*
X81430836Y-72641555D01*
X81436702Y-72643094D01*
X81520278Y-72644407D01*
X81602876Y-72645705D01*
X81602878Y-72645705D01*
X81608939Y-72645800D01*
X81614850Y-72644446D01*
X81614852Y-72644446D01*
X81770940Y-72608697D01*
X81770943Y-72608696D01*
X81776850Y-72607343D01*
X81930741Y-72529944D01*
X81935353Y-72526005D01*
X81935356Y-72526003D01*
X82017157Y-72456138D01*
X82061728Y-72418071D01*
X82062212Y-72418638D01*
X82112239Y-72390453D01*
X82174001Y-72397602D01*
X82199824Y-72414662D01*
X82260584Y-72469949D01*
X82312498Y-72517187D01*
X82463882Y-72599382D01*
X82469752Y-72600922D01*
X82624635Y-72641555D01*
X82624636Y-72641555D01*
X82630502Y-72643094D01*
X82714078Y-72644407D01*
X82796676Y-72645705D01*
X82796678Y-72645705D01*
X82802739Y-72645800D01*
X82808650Y-72644446D01*
X82808652Y-72644446D01*
X82964740Y-72608697D01*
X82964743Y-72608696D01*
X82970650Y-72607343D01*
X83124541Y-72529944D01*
X83129153Y-72526005D01*
X83129156Y-72526003D01*
X83210957Y-72456138D01*
X83255528Y-72418071D01*
X83256012Y-72418638D01*
X83306039Y-72390453D01*
X83367801Y-72397602D01*
X83393624Y-72414662D01*
X83454384Y-72469949D01*
X83506298Y-72517187D01*
X83657682Y-72599382D01*
X83663552Y-72600922D01*
X83818435Y-72641555D01*
X83818436Y-72641555D01*
X83824302Y-72643094D01*
X83907878Y-72644407D01*
X83990476Y-72645705D01*
X83990478Y-72645705D01*
X83996539Y-72645800D01*
X84002450Y-72644446D01*
X84002452Y-72644446D01*
X84158540Y-72608697D01*
X84158543Y-72608696D01*
X84164450Y-72607343D01*
X84318341Y-72529944D01*
X84322953Y-72526005D01*
X84322956Y-72526003D01*
X84404757Y-72456138D01*
X84449328Y-72418071D01*
X84449812Y-72418638D01*
X84499839Y-72390453D01*
X84561601Y-72397602D01*
X84587424Y-72414662D01*
X84648184Y-72469949D01*
X84700098Y-72517187D01*
X84851482Y-72599382D01*
X84857352Y-72600922D01*
X85012235Y-72641555D01*
X85012236Y-72641555D01*
X85018102Y-72643094D01*
X85101678Y-72644407D01*
X85184276Y-72645705D01*
X85184278Y-72645705D01*
X85190339Y-72645800D01*
X85196250Y-72644446D01*
X85196252Y-72644446D01*
X85352340Y-72608697D01*
X85352343Y-72608696D01*
X85358250Y-72607343D01*
X85512141Y-72529944D01*
X85516753Y-72526005D01*
X85516756Y-72526003D01*
X85638516Y-72422010D01*
X85643128Y-72418071D01*
X85743648Y-72278182D01*
X85751650Y-72258278D01*
X85787043Y-72170232D01*
X85807898Y-72118354D01*
X85822979Y-72012395D01*
X85850330Y-71956562D01*
X85905278Y-71927469D01*
X85966832Y-71936229D01*
X85993709Y-71955436D01*
X86000342Y-71962069D01*
X86029199Y-72022165D01*
X86043015Y-72147311D01*
X86055273Y-72180807D01*
X86090907Y-72278182D01*
X86102213Y-72309078D01*
X86105599Y-72314116D01*
X86105599Y-72314117D01*
X86178101Y-72422010D01*
X86198290Y-72452055D01*
X86325698Y-72567987D01*
X86477082Y-72650182D01*
X86482952Y-72651722D01*
X86637835Y-72692355D01*
X86637836Y-72692355D01*
X86643702Y-72693894D01*
X86743081Y-72695455D01*
X86801902Y-72715595D01*
X86837653Y-72766462D01*
X86842100Y-72796043D01*
X86842100Y-73432047D01*
X86822887Y-73491178D01*
X86772587Y-73527723D01*
X86764984Y-73529867D01*
X86700199Y-73545420D01*
X86700195Y-73545421D01*
X86694299Y-73546837D01*
X86688913Y-73549617D01*
X86688910Y-73549618D01*
X86546613Y-73623064D01*
X86541227Y-73625844D01*
X86411419Y-73739082D01*
X86379423Y-73784608D01*
X86315858Y-73875052D01*
X86315856Y-73875056D01*
X86312370Y-73880016D01*
X86310167Y-73885665D01*
X86310166Y-73885668D01*
X86282935Y-73955513D01*
X86249797Y-74040508D01*
X86230850Y-74184420D01*
X86216194Y-74215146D01*
X86221162Y-74219960D01*
X86232247Y-74255994D01*
X86246215Y-74382511D01*
X86305413Y-74544278D01*
X86401490Y-74687255D01*
X86528898Y-74803187D01*
X86680282Y-74885382D01*
X86686152Y-74886922D01*
X86841035Y-74927555D01*
X86841036Y-74927555D01*
X86846902Y-74929094D01*
X86930478Y-74930407D01*
X87013076Y-74931705D01*
X87013078Y-74931705D01*
X87019139Y-74931800D01*
X87025050Y-74930446D01*
X87025052Y-74930446D01*
X87181140Y-74894697D01*
X87181143Y-74894696D01*
X87187050Y-74893343D01*
X87340941Y-74815944D01*
X87345553Y-74812005D01*
X87345556Y-74812003D01*
X87467316Y-74708010D01*
X87471928Y-74704071D01*
X87572448Y-74564182D01*
X87580450Y-74544278D01*
X87634434Y-74409985D01*
X87636698Y-74404354D01*
X87657592Y-74257551D01*
X87683873Y-74203902D01*
X87683558Y-74203624D01*
X87684571Y-74202477D01*
X87719708Y-74162692D01*
X87723975Y-74158152D01*
X87735982Y-74146145D01*
X87742874Y-74136949D01*
X87747961Y-74130701D01*
X87779978Y-74094449D01*
X87784405Y-74085020D01*
X87794964Y-74067446D01*
X87801216Y-74059105D01*
X87818200Y-74013799D01*
X87821324Y-74006385D01*
X87841881Y-73962600D01*
X87842985Y-73955513D01*
X87843486Y-73952298D01*
X87848687Y-73932473D01*
X87849826Y-73929434D01*
X87849826Y-73929432D01*
X87852344Y-73922716D01*
X87855927Y-73874495D01*
X87856848Y-73866474D01*
X87858502Y-73855852D01*
X87859100Y-73852014D01*
X87859100Y-73835537D01*
X87859377Y-73828081D01*
X87862608Y-73784608D01*
X87862608Y-73784606D01*
X87863139Y-73777459D01*
X87861317Y-73768923D01*
X87859100Y-73747922D01*
X87859100Y-72796690D01*
X87878313Y-72737559D01*
X87928613Y-72701014D01*
X87961280Y-72696102D01*
X88055553Y-72697583D01*
X88055555Y-72697583D01*
X88061617Y-72697678D01*
X88067528Y-72696324D01*
X88067530Y-72696324D01*
X88223618Y-72660575D01*
X88223621Y-72660574D01*
X88229528Y-72659221D01*
X88383419Y-72581822D01*
X88388031Y-72577883D01*
X88388034Y-72577881D01*
X88509794Y-72473888D01*
X88514406Y-72469949D01*
X88614926Y-72330060D01*
X88633801Y-72283108D01*
X88676912Y-72175863D01*
X88679176Y-72170232D01*
X88700819Y-72018163D01*
X88729280Y-71961203D01*
X88881312Y-71809171D01*
X88891453Y-71801068D01*
X88891438Y-71801050D01*
X88896896Y-71796405D01*
X88902958Y-71792580D01*
X88939108Y-71751648D01*
X88943375Y-71747108D01*
X88955382Y-71735101D01*
X88962274Y-71725905D01*
X88967361Y-71719657D01*
X88999378Y-71683405D01*
X89003805Y-71673976D01*
X89014364Y-71656402D01*
X89020616Y-71648061D01*
X89028701Y-71626496D01*
X89037598Y-71602762D01*
X89040726Y-71595338D01*
X89061281Y-71551556D01*
X89062883Y-71541264D01*
X89068085Y-71521439D01*
X89069228Y-71518388D01*
X89069229Y-71518384D01*
X89071745Y-71511672D01*
X89075328Y-71463451D01*
X89076249Y-71455426D01*
X89077902Y-71444811D01*
X89077902Y-71444809D01*
X89078500Y-71440970D01*
X89078500Y-71424496D01*
X89078777Y-71417041D01*
X89082008Y-71373561D01*
X89082539Y-71366415D01*
X89081043Y-71359405D01*
X89080717Y-71357876D01*
X89078500Y-71336874D01*
X89078500Y-66982204D01*
X89089465Y-66936532D01*
X89098213Y-66919363D01*
X89101809Y-66912306D01*
X89116900Y-66817024D01*
X89116900Y-66325538D01*
X90300912Y-66325538D01*
X90301012Y-66326170D01*
X90305917Y-66331811D01*
X90436606Y-66423321D01*
X90444184Y-66427696D01*
X90635214Y-66516774D01*
X90643439Y-66519767D01*
X90847026Y-66574319D01*
X90855655Y-66575840D01*
X91065622Y-66594210D01*
X91074378Y-66594210D01*
X91284345Y-66575840D01*
X91292974Y-66574319D01*
X91496561Y-66519767D01*
X91504786Y-66516774D01*
X91695816Y-66427696D01*
X91703394Y-66423321D01*
X91831150Y-66333865D01*
X91839305Y-66323043D01*
X91839317Y-66322400D01*
X91835467Y-66315993D01*
X91081268Y-65561794D01*
X91069189Y-65555639D01*
X91064077Y-65556449D01*
X90307067Y-66313459D01*
X90300912Y-66325538D01*
X89116900Y-66325538D01*
X89116900Y-65339378D01*
X89810790Y-65339378D01*
X89829160Y-65549345D01*
X89830681Y-65557974D01*
X89885233Y-65761561D01*
X89888226Y-65769786D01*
X89977304Y-65960815D01*
X89981679Y-65968393D01*
X90071135Y-66096150D01*
X90081957Y-66104305D01*
X90082599Y-66104317D01*
X90089009Y-66100465D01*
X90843206Y-65346268D01*
X90848534Y-65335811D01*
X91290639Y-65335811D01*
X91291449Y-65340923D01*
X92048459Y-66097933D01*
X92060538Y-66104088D01*
X92061170Y-66103988D01*
X92066811Y-66099084D01*
X92158321Y-65968393D01*
X92162696Y-65960815D01*
X92251774Y-65769786D01*
X92254767Y-65761561D01*
X92309319Y-65557974D01*
X92310840Y-65549345D01*
X92329210Y-65339378D01*
X92329210Y-65330622D01*
X92310840Y-65120655D01*
X92309318Y-65112022D01*
X92254767Y-64908439D01*
X92251774Y-64900214D01*
X92162696Y-64709185D01*
X92158321Y-64701607D01*
X92068865Y-64573850D01*
X92058043Y-64565695D01*
X92057401Y-64565683D01*
X92050991Y-64569535D01*
X91296794Y-65323732D01*
X91290639Y-65335811D01*
X90848534Y-65335811D01*
X90849361Y-65334189D01*
X90848551Y-65329077D01*
X90091541Y-64572067D01*
X90079462Y-64565912D01*
X90078830Y-64566012D01*
X90073189Y-64570916D01*
X89981679Y-64701607D01*
X89977304Y-64709185D01*
X89888226Y-64900214D01*
X89885233Y-64908439D01*
X89830682Y-65112022D01*
X89829160Y-65120655D01*
X89810790Y-65330622D01*
X89810790Y-65339378D01*
X89116900Y-65339378D01*
X89116900Y-65252976D01*
X89101809Y-65157694D01*
X89043292Y-65042849D01*
X88952151Y-64951708D01*
X88945099Y-64948115D01*
X88945098Y-64948114D01*
X88891097Y-64920599D01*
X88837306Y-64893191D01*
X88742024Y-64878100D01*
X88397976Y-64878100D01*
X88335734Y-64887958D01*
X88304266Y-64887958D01*
X88242024Y-64878100D01*
X87897976Y-64878100D01*
X87835734Y-64887958D01*
X87804266Y-64887958D01*
X87742024Y-64878100D01*
X87397976Y-64878100D01*
X87335734Y-64887958D01*
X87304266Y-64887958D01*
X87242024Y-64878100D01*
X86897976Y-64878100D01*
X86835734Y-64887958D01*
X86804266Y-64887958D01*
X86742024Y-64878100D01*
X86397976Y-64878100D01*
X86335734Y-64887958D01*
X86304266Y-64887958D01*
X86242024Y-64878100D01*
X85897976Y-64878100D01*
X85835734Y-64887958D01*
X85804266Y-64887958D01*
X85742024Y-64878100D01*
X85397976Y-64878100D01*
X85366857Y-64883029D01*
X85305449Y-64873302D01*
X85261486Y-64829337D01*
X85253527Y-64807932D01*
X85252832Y-64802189D01*
X85230488Y-64743058D01*
X85194088Y-64646727D01*
X85194087Y-64646726D01*
X85191943Y-64641051D01*
X85094375Y-64499088D01*
X84965760Y-64384496D01*
X84896074Y-64347599D01*
X90300683Y-64347599D01*
X90304535Y-64354009D01*
X91058732Y-65108206D01*
X91070811Y-65114361D01*
X91075923Y-65113551D01*
X91832933Y-64356541D01*
X91839088Y-64344462D01*
X91838988Y-64343830D01*
X91834083Y-64338189D01*
X91703394Y-64246679D01*
X91695816Y-64242304D01*
X91504786Y-64153226D01*
X91496561Y-64150233D01*
X91292974Y-64095681D01*
X91284345Y-64094160D01*
X91074378Y-64075790D01*
X91065622Y-64075790D01*
X90855655Y-64094160D01*
X90847026Y-64095681D01*
X90643439Y-64150233D01*
X90635214Y-64153226D01*
X90444185Y-64242304D01*
X90436607Y-64246679D01*
X90308850Y-64336135D01*
X90300695Y-64346957D01*
X90300683Y-64347599D01*
X84896074Y-64347599D01*
X84890149Y-64344462D01*
X84818886Y-64306730D01*
X84813524Y-64303891D01*
X84646455Y-64261926D01*
X84640398Y-64261894D01*
X84640396Y-64261894D01*
X84556294Y-64261454D01*
X84474198Y-64261024D01*
X84468301Y-64262440D01*
X84468299Y-64262440D01*
X84312597Y-64299821D01*
X84306699Y-64301237D01*
X84301313Y-64304017D01*
X84301310Y-64304018D01*
X84159013Y-64377464D01*
X84153627Y-64380244D01*
X84149062Y-64384226D01*
X84149061Y-64384227D01*
X84040778Y-64478688D01*
X84023819Y-64493482D01*
X83974295Y-64563949D01*
X83928258Y-64629452D01*
X83928256Y-64629456D01*
X83924770Y-64634416D01*
X83922566Y-64640070D01*
X83922565Y-64640071D01*
X83901171Y-64694945D01*
X83861792Y-64743058D01*
X83801653Y-64758836D01*
X83743726Y-64736252D01*
X83713337Y-64693963D01*
X83695488Y-64646727D01*
X83695487Y-64646726D01*
X83693343Y-64641051D01*
X83595775Y-64499088D01*
X83467160Y-64384496D01*
X83391549Y-64344462D01*
X83320286Y-64306730D01*
X83314924Y-64303891D01*
X83147855Y-64261926D01*
X83141798Y-64261894D01*
X83141796Y-64261894D01*
X83057694Y-64261454D01*
X82975598Y-64261024D01*
X82969701Y-64262440D01*
X82969699Y-64262440D01*
X82813997Y-64299821D01*
X82808099Y-64301237D01*
X82802713Y-64304017D01*
X82802710Y-64304018D01*
X82660413Y-64377464D01*
X82655027Y-64380244D01*
X82650462Y-64384226D01*
X82650461Y-64384227D01*
X82542178Y-64478688D01*
X82525219Y-64493482D01*
X82475695Y-64563949D01*
X82429658Y-64629452D01*
X82429656Y-64629456D01*
X82426170Y-64634416D01*
X82423967Y-64640065D01*
X82423966Y-64640068D01*
X82407445Y-64682444D01*
X82368066Y-64730557D01*
X82307927Y-64746334D01*
X82249999Y-64723750D01*
X82219612Y-64681461D01*
X82196892Y-64621334D01*
X82196886Y-64621323D01*
X82194743Y-64615651D01*
X82097175Y-64473688D01*
X81968560Y-64359096D01*
X81946846Y-64347599D01*
X81821686Y-64281330D01*
X81816324Y-64278491D01*
X81649255Y-64236526D01*
X81643198Y-64236494D01*
X81643196Y-64236494D01*
X81559094Y-64236054D01*
X81476998Y-64235624D01*
X81471101Y-64237040D01*
X81471099Y-64237040D01*
X81367442Y-64261926D01*
X81309499Y-64275837D01*
X81304113Y-64278617D01*
X81304110Y-64278618D01*
X81170464Y-64347599D01*
X81156427Y-64354844D01*
X81151862Y-64358826D01*
X81151861Y-64358827D01*
X81117811Y-64388531D01*
X81026619Y-64468082D01*
X81011570Y-64489495D01*
X80931058Y-64604052D01*
X80931056Y-64604056D01*
X80927570Y-64609016D01*
X80925366Y-64614670D01*
X80925365Y-64614671D01*
X80903971Y-64669545D01*
X80864592Y-64717658D01*
X80804453Y-64733436D01*
X80746526Y-64710852D01*
X80716137Y-64668563D01*
X80698288Y-64621327D01*
X80698287Y-64621326D01*
X80696143Y-64615651D01*
X80598575Y-64473688D01*
X80469960Y-64359096D01*
X80448246Y-64347599D01*
X80323086Y-64281330D01*
X80317724Y-64278491D01*
X80150655Y-64236526D01*
X80144598Y-64236494D01*
X80144596Y-64236494D01*
X80060494Y-64236054D01*
X79978398Y-64235624D01*
X79972501Y-64237040D01*
X79972499Y-64237040D01*
X79868842Y-64261926D01*
X79810899Y-64275837D01*
X79805513Y-64278617D01*
X79805510Y-64278618D01*
X79671864Y-64347599D01*
X79657827Y-64354844D01*
X79653262Y-64358826D01*
X79653261Y-64358827D01*
X79619211Y-64388531D01*
X79528019Y-64468082D01*
X79512970Y-64489495D01*
X79432458Y-64604052D01*
X79432456Y-64604056D01*
X79428970Y-64609016D01*
X79426767Y-64614665D01*
X79426766Y-64614668D01*
X79395468Y-64694945D01*
X79366397Y-64769508D01*
X79365605Y-64775525D01*
X79365604Y-64775528D01*
X79360339Y-64815524D01*
X79333573Y-64871642D01*
X79301896Y-64891626D01*
X79302694Y-64893191D01*
X79194902Y-64948114D01*
X79194901Y-64948115D01*
X79187849Y-64951708D01*
X79096708Y-65042849D01*
X79038191Y-65157694D01*
X79023100Y-65252976D01*
X79023100Y-66817024D01*
X74676000Y-66817024D01*
X74676000Y-66325538D01*
X75800912Y-66325538D01*
X75801012Y-66326170D01*
X75805917Y-66331811D01*
X75936606Y-66423321D01*
X75944184Y-66427696D01*
X76135214Y-66516774D01*
X76143439Y-66519767D01*
X76347026Y-66574319D01*
X76355655Y-66575840D01*
X76565622Y-66594210D01*
X76574378Y-66594210D01*
X76784345Y-66575840D01*
X76792974Y-66574319D01*
X76996561Y-66519767D01*
X77004786Y-66516774D01*
X77195816Y-66427696D01*
X77203394Y-66423321D01*
X77331150Y-66333865D01*
X77339305Y-66323043D01*
X77339317Y-66322400D01*
X77335467Y-66315993D01*
X76581268Y-65561794D01*
X76569189Y-65555639D01*
X76564077Y-65556449D01*
X75807067Y-66313459D01*
X75800912Y-66325538D01*
X74676000Y-66325538D01*
X74676000Y-65339378D01*
X75310790Y-65339378D01*
X75329160Y-65549345D01*
X75330681Y-65557974D01*
X75385233Y-65761561D01*
X75388226Y-65769786D01*
X75477304Y-65960815D01*
X75481679Y-65968393D01*
X75571135Y-66096150D01*
X75581957Y-66104305D01*
X75582599Y-66104317D01*
X75589009Y-66100465D01*
X76343206Y-65346268D01*
X76348534Y-65335811D01*
X76790639Y-65335811D01*
X76791449Y-65340923D01*
X77548459Y-66097933D01*
X77560538Y-66104088D01*
X77561170Y-66103988D01*
X77566811Y-66099084D01*
X77658321Y-65968393D01*
X77662696Y-65960815D01*
X77751774Y-65769786D01*
X77754767Y-65761561D01*
X77809319Y-65557974D01*
X77810840Y-65549345D01*
X77829210Y-65339378D01*
X77829210Y-65330622D01*
X77810840Y-65120655D01*
X77809318Y-65112022D01*
X77754767Y-64908439D01*
X77751774Y-64900214D01*
X77662696Y-64709185D01*
X77658321Y-64701607D01*
X77568865Y-64573850D01*
X77558043Y-64565695D01*
X77557401Y-64565683D01*
X77550991Y-64569535D01*
X76796794Y-65323732D01*
X76790639Y-65335811D01*
X76348534Y-65335811D01*
X76349361Y-65334189D01*
X76348551Y-65329077D01*
X75591541Y-64572067D01*
X75579462Y-64565912D01*
X75578830Y-64566012D01*
X75573189Y-64570916D01*
X75481679Y-64701607D01*
X75477304Y-64709185D01*
X75388226Y-64900214D01*
X75385233Y-64908439D01*
X75330682Y-65112022D01*
X75329160Y-65120655D01*
X75310790Y-65330622D01*
X75310790Y-65339378D01*
X74676000Y-65339378D01*
X74676000Y-64347599D01*
X75800683Y-64347599D01*
X75804535Y-64354009D01*
X76558732Y-65108206D01*
X76570811Y-65114361D01*
X76575923Y-65113551D01*
X77332933Y-64356541D01*
X77339088Y-64344462D01*
X77338988Y-64343830D01*
X77334083Y-64338189D01*
X77203394Y-64246679D01*
X77195816Y-64242304D01*
X77004786Y-64153226D01*
X76996561Y-64150233D01*
X76792974Y-64095681D01*
X76784345Y-64094160D01*
X76574378Y-64075790D01*
X76565622Y-64075790D01*
X76355655Y-64094160D01*
X76347026Y-64095681D01*
X76143439Y-64150233D01*
X76135214Y-64153226D01*
X75944185Y-64242304D01*
X75936607Y-64246679D01*
X75808850Y-64336135D01*
X75800695Y-64346957D01*
X75800683Y-64347599D01*
X74676000Y-64347599D01*
X74676000Y-60425538D01*
X75200912Y-60425538D01*
X75201012Y-60426170D01*
X75205917Y-60431811D01*
X75336606Y-60523321D01*
X75344184Y-60527696D01*
X75535214Y-60616774D01*
X75543439Y-60619767D01*
X75747026Y-60674319D01*
X75755655Y-60675840D01*
X75965622Y-60694210D01*
X75974378Y-60694210D01*
X76184345Y-60675840D01*
X76192974Y-60674319D01*
X76396561Y-60619767D01*
X76404786Y-60616774D01*
X76595816Y-60527696D01*
X76603394Y-60523321D01*
X76731150Y-60433865D01*
X76737425Y-60425538D01*
X90900912Y-60425538D01*
X90901012Y-60426170D01*
X90905917Y-60431811D01*
X91036606Y-60523321D01*
X91044184Y-60527696D01*
X91235214Y-60616774D01*
X91243439Y-60619767D01*
X91447026Y-60674319D01*
X91455655Y-60675840D01*
X91665622Y-60694210D01*
X91674378Y-60694210D01*
X91884345Y-60675840D01*
X91892974Y-60674319D01*
X92096561Y-60619767D01*
X92104786Y-60616774D01*
X92295816Y-60527696D01*
X92303394Y-60523321D01*
X92431150Y-60433865D01*
X92439305Y-60423043D01*
X92439317Y-60422400D01*
X92435467Y-60415993D01*
X91681268Y-59661794D01*
X91669189Y-59655639D01*
X91664077Y-59656449D01*
X90907067Y-60413459D01*
X90900912Y-60425538D01*
X76737425Y-60425538D01*
X76739305Y-60423043D01*
X76739317Y-60422400D01*
X76735467Y-60415993D01*
X75981268Y-59661794D01*
X75969189Y-59655639D01*
X75964077Y-59656449D01*
X75207067Y-60413459D01*
X75200912Y-60425538D01*
X74676000Y-60425538D01*
X74676000Y-60082896D01*
X74695213Y-60023765D01*
X74745513Y-59987220D01*
X74807687Y-59987220D01*
X74857987Y-60023765D01*
X74867774Y-60040380D01*
X74877301Y-60060810D01*
X74881679Y-60068393D01*
X74971135Y-60196150D01*
X74981957Y-60204305D01*
X74982599Y-60204317D01*
X74989009Y-60200465D01*
X75743206Y-59446268D01*
X75748534Y-59435811D01*
X76190639Y-59435811D01*
X76191449Y-59440923D01*
X76948459Y-60197933D01*
X76960538Y-60204088D01*
X76961170Y-60203988D01*
X76966811Y-60199084D01*
X77058321Y-60068393D01*
X77062696Y-60060815D01*
X77151774Y-59869786D01*
X77154767Y-59861561D01*
X77209319Y-59657974D01*
X77210840Y-59649345D01*
X77229210Y-59439378D01*
X90410790Y-59439378D01*
X90429160Y-59649345D01*
X90430681Y-59657974D01*
X90485233Y-59861561D01*
X90488226Y-59869786D01*
X90577304Y-60060815D01*
X90581679Y-60068393D01*
X90671135Y-60196150D01*
X90681957Y-60204305D01*
X90682599Y-60204317D01*
X90689009Y-60200465D01*
X91443206Y-59446268D01*
X91449361Y-59434189D01*
X91448551Y-59429077D01*
X90691541Y-58672067D01*
X90679462Y-58665912D01*
X90678830Y-58666012D01*
X90673189Y-58670916D01*
X90581679Y-58801607D01*
X90577304Y-58809185D01*
X90488226Y-59000214D01*
X90485233Y-59008439D01*
X90430681Y-59212026D01*
X90429160Y-59220655D01*
X90410790Y-59430622D01*
X90410790Y-59439378D01*
X77229210Y-59439378D01*
X77229210Y-59430622D01*
X77210840Y-59220655D01*
X77209319Y-59212026D01*
X77154767Y-59008439D01*
X77151774Y-59000214D01*
X77062696Y-58809185D01*
X77058321Y-58801607D01*
X76968865Y-58673850D01*
X76958043Y-58665695D01*
X76957401Y-58665683D01*
X76950991Y-58669535D01*
X76196794Y-59423732D01*
X76190639Y-59435811D01*
X75748534Y-59435811D01*
X75749361Y-59434189D01*
X75748551Y-59429077D01*
X74991541Y-58672067D01*
X74979462Y-58665912D01*
X74978830Y-58666012D01*
X74973189Y-58670916D01*
X74881679Y-58801607D01*
X74877301Y-58809190D01*
X74867774Y-58829620D01*
X74825372Y-58875091D01*
X74764340Y-58886954D01*
X74707991Y-58860678D01*
X74677848Y-58806299D01*
X74676000Y-58787104D01*
X74676000Y-58447599D01*
X75200683Y-58447599D01*
X75204535Y-58454009D01*
X75958732Y-59208206D01*
X75970811Y-59214361D01*
X75975923Y-59213551D01*
X76732933Y-58456541D01*
X76737490Y-58447599D01*
X90900683Y-58447599D01*
X90904535Y-58454009D01*
X91658732Y-59208206D01*
X91670811Y-59214361D01*
X91675923Y-59213551D01*
X92432933Y-58456541D01*
X92439088Y-58444462D01*
X92438988Y-58443830D01*
X92434083Y-58438189D01*
X92303394Y-58346679D01*
X92295816Y-58342304D01*
X92104786Y-58253226D01*
X92096561Y-58250233D01*
X91892974Y-58195681D01*
X91884345Y-58194160D01*
X91674378Y-58175790D01*
X91665622Y-58175790D01*
X91455655Y-58194160D01*
X91447026Y-58195681D01*
X91243439Y-58250233D01*
X91235214Y-58253226D01*
X91044185Y-58342304D01*
X91036607Y-58346679D01*
X90908850Y-58436135D01*
X90900695Y-58446957D01*
X90900683Y-58447599D01*
X76737490Y-58447599D01*
X76739088Y-58444462D01*
X76738988Y-58443830D01*
X76734083Y-58438189D01*
X76603394Y-58346679D01*
X76595816Y-58342304D01*
X76404786Y-58253226D01*
X76396561Y-58250233D01*
X76192974Y-58195681D01*
X76184345Y-58194160D01*
X75974378Y-58175790D01*
X75965622Y-58175790D01*
X75755655Y-58194160D01*
X75747026Y-58195681D01*
X75543439Y-58250233D01*
X75535214Y-58253226D01*
X75344185Y-58342304D01*
X75336607Y-58346679D01*
X75208850Y-58436135D01*
X75200695Y-58446957D01*
X75200683Y-58447599D01*
X74676000Y-58447599D01*
X74676000Y-56488600D01*
X74695213Y-56429469D01*
X74745513Y-56392924D01*
X74776600Y-56388000D01*
X92863400Y-56388000D01*
X92922531Y-56407213D01*
G37*
%TD.AperFunction*%
%TD*%
M02*
