%TF.GenerationSoftware,KiCad,Pcbnew,(6.0.2)*%
%TF.CreationDate,2022-03-04T15:26:31-05:00*%
%TF.ProjectId,Amiga500 Mod PCB Rev A,416d6967-6135-4303-9020-4d6f64205043,rev?*%
%TF.SameCoordinates,Original*%
%TF.FileFunction,Legend,Top*%
%TF.FilePolarity,Positive*%
%FSLAX46Y46*%
G04 Gerber Fmt 4.6, Leading zero omitted, Abs format (unit mm)*
G04 Created by KiCad (PCBNEW (6.0.2)) date 2022-03-04 15:26:31*
%MOMM*%
%LPD*%
G01*
G04 APERTURE LIST*
%ADD10C,0.150000*%
%ADD11C,0.120000*%
%ADD12C,0.127000*%
%ADD13C,0.200000*%
G04 APERTURE END LIST*
D10*
X106379619Y-66392266D02*
X106855809Y-66392266D01*
X106284380Y-66677980D02*
X106617714Y-65677980D01*
X106951047Y-66677980D01*
X107284380Y-66677980D02*
X107284380Y-66011314D01*
X107284380Y-66106552D02*
X107332000Y-66058933D01*
X107427238Y-66011314D01*
X107570095Y-66011314D01*
X107665333Y-66058933D01*
X107712952Y-66154171D01*
X107712952Y-66677980D01*
X107712952Y-66154171D02*
X107760571Y-66058933D01*
X107855809Y-66011314D01*
X107998666Y-66011314D01*
X108093904Y-66058933D01*
X108141523Y-66154171D01*
X108141523Y-66677980D01*
X108617714Y-66677980D02*
X108617714Y-66011314D01*
X108617714Y-65677980D02*
X108570095Y-65725600D01*
X108617714Y-65773219D01*
X108665333Y-65725600D01*
X108617714Y-65677980D01*
X108617714Y-65773219D01*
X109522476Y-66011314D02*
X109522476Y-66820838D01*
X109474857Y-66916076D01*
X109427238Y-66963695D01*
X109332000Y-67011314D01*
X109189142Y-67011314D01*
X109093904Y-66963695D01*
X109522476Y-66630361D02*
X109427238Y-66677980D01*
X109236761Y-66677980D01*
X109141523Y-66630361D01*
X109093904Y-66582742D01*
X109046285Y-66487504D01*
X109046285Y-66201790D01*
X109093904Y-66106552D01*
X109141523Y-66058933D01*
X109236761Y-66011314D01*
X109427238Y-66011314D01*
X109522476Y-66058933D01*
X110427238Y-66677980D02*
X110427238Y-66154171D01*
X110379619Y-66058933D01*
X110284380Y-66011314D01*
X110093904Y-66011314D01*
X109998666Y-66058933D01*
X110427238Y-66630361D02*
X110332000Y-66677980D01*
X110093904Y-66677980D01*
X109998666Y-66630361D01*
X109951047Y-66535123D01*
X109951047Y-66439885D01*
X109998666Y-66344647D01*
X110093904Y-66297028D01*
X110332000Y-66297028D01*
X110427238Y-66249409D01*
X111379619Y-65677980D02*
X110903428Y-65677980D01*
X110855809Y-66154171D01*
X110903428Y-66106552D01*
X110998666Y-66058933D01*
X111236761Y-66058933D01*
X111332000Y-66106552D01*
X111379619Y-66154171D01*
X111427238Y-66249409D01*
X111427238Y-66487504D01*
X111379619Y-66582742D01*
X111332000Y-66630361D01*
X111236761Y-66677980D01*
X110998666Y-66677980D01*
X110903428Y-66630361D01*
X110855809Y-66582742D01*
X112046285Y-65677980D02*
X112141523Y-65677980D01*
X112236761Y-65725600D01*
X112284380Y-65773219D01*
X112332000Y-65868457D01*
X112379619Y-66058933D01*
X112379619Y-66297028D01*
X112332000Y-66487504D01*
X112284380Y-66582742D01*
X112236761Y-66630361D01*
X112141523Y-66677980D01*
X112046285Y-66677980D01*
X111951047Y-66630361D01*
X111903428Y-66582742D01*
X111855809Y-66487504D01*
X111808190Y-66297028D01*
X111808190Y-66058933D01*
X111855809Y-65868457D01*
X111903428Y-65773219D01*
X111951047Y-65725600D01*
X112046285Y-65677980D01*
X112998666Y-65677980D02*
X113093904Y-65677980D01*
X113189142Y-65725600D01*
X113236761Y-65773219D01*
X113284380Y-65868457D01*
X113332000Y-66058933D01*
X113332000Y-66297028D01*
X113284380Y-66487504D01*
X113236761Y-66582742D01*
X113189142Y-66630361D01*
X113093904Y-66677980D01*
X112998666Y-66677980D01*
X112903428Y-66630361D01*
X112855809Y-66582742D01*
X112808190Y-66487504D01*
X112760571Y-66297028D01*
X112760571Y-66058933D01*
X112808190Y-65868457D01*
X112855809Y-65773219D01*
X112903428Y-65725600D01*
X112998666Y-65677980D01*
X114522476Y-66677980D02*
X114522476Y-65677980D01*
X114855809Y-66392266D01*
X115189142Y-65677980D01*
X115189142Y-66677980D01*
X115808190Y-66677980D02*
X115712952Y-66630361D01*
X115665333Y-66582742D01*
X115617714Y-66487504D01*
X115617714Y-66201790D01*
X115665333Y-66106552D01*
X115712952Y-66058933D01*
X115808190Y-66011314D01*
X115951047Y-66011314D01*
X116046285Y-66058933D01*
X116093904Y-66106552D01*
X116141523Y-66201790D01*
X116141523Y-66487504D01*
X116093904Y-66582742D01*
X116046285Y-66630361D01*
X115951047Y-66677980D01*
X115808190Y-66677980D01*
X116998666Y-66677980D02*
X116998666Y-65677980D01*
X116998666Y-66630361D02*
X116903428Y-66677980D01*
X116712952Y-66677980D01*
X116617714Y-66630361D01*
X116570095Y-66582742D01*
X116522476Y-66487504D01*
X116522476Y-66201790D01*
X116570095Y-66106552D01*
X116617714Y-66058933D01*
X116712952Y-66011314D01*
X116903428Y-66011314D01*
X116998666Y-66058933D01*
X118236761Y-66677980D02*
X118236761Y-65677980D01*
X118617714Y-65677980D01*
X118712952Y-65725600D01*
X118760571Y-65773219D01*
X118808190Y-65868457D01*
X118808190Y-66011314D01*
X118760571Y-66106552D01*
X118712952Y-66154171D01*
X118617714Y-66201790D01*
X118236761Y-66201790D01*
X119808190Y-66582742D02*
X119760571Y-66630361D01*
X119617714Y-66677980D01*
X119522476Y-66677980D01*
X119379619Y-66630361D01*
X119284380Y-66535123D01*
X119236761Y-66439885D01*
X119189142Y-66249409D01*
X119189142Y-66106552D01*
X119236761Y-65916076D01*
X119284380Y-65820838D01*
X119379619Y-65725600D01*
X119522476Y-65677980D01*
X119617714Y-65677980D01*
X119760571Y-65725600D01*
X119808190Y-65773219D01*
X120570095Y-66154171D02*
X120712952Y-66201790D01*
X120760571Y-66249409D01*
X120808190Y-66344647D01*
X120808190Y-66487504D01*
X120760571Y-66582742D01*
X120712952Y-66630361D01*
X120617714Y-66677980D01*
X120236761Y-66677980D01*
X120236761Y-65677980D01*
X120570095Y-65677980D01*
X120665333Y-65725600D01*
X120712952Y-65773219D01*
X120760571Y-65868457D01*
X120760571Y-65963695D01*
X120712952Y-66058933D01*
X120665333Y-66106552D01*
X120570095Y-66154171D01*
X120236761Y-66154171D01*
X122570095Y-66677980D02*
X122236761Y-66201790D01*
X121998666Y-66677980D02*
X121998666Y-65677980D01*
X122379619Y-65677980D01*
X122474857Y-65725600D01*
X122522476Y-65773219D01*
X122570095Y-65868457D01*
X122570095Y-66011314D01*
X122522476Y-66106552D01*
X122474857Y-66154171D01*
X122379619Y-66201790D01*
X121998666Y-66201790D01*
X123379619Y-66630361D02*
X123284380Y-66677980D01*
X123093904Y-66677980D01*
X122998666Y-66630361D01*
X122951047Y-66535123D01*
X122951047Y-66154171D01*
X122998666Y-66058933D01*
X123093904Y-66011314D01*
X123284380Y-66011314D01*
X123379619Y-66058933D01*
X123427238Y-66154171D01*
X123427238Y-66249409D01*
X122951047Y-66344647D01*
X123760571Y-66011314D02*
X123998666Y-66677980D01*
X124236761Y-66011314D01*
X124617714Y-66582742D02*
X124665333Y-66630361D01*
X124617714Y-66677980D01*
X124570095Y-66630361D01*
X124617714Y-66582742D01*
X124617714Y-66677980D01*
X125808190Y-66392266D02*
X126284380Y-66392266D01*
X125712952Y-66677980D02*
X126046285Y-65677980D01*
X126379619Y-66677980D01*
X108093904Y-67287980D02*
X108093904Y-68002266D01*
X108046285Y-68145123D01*
X107951047Y-68240361D01*
X107808190Y-68287980D01*
X107712952Y-68287980D01*
X108951047Y-68240361D02*
X108855809Y-68287980D01*
X108665333Y-68287980D01*
X108570095Y-68240361D01*
X108522476Y-68145123D01*
X108522476Y-67764171D01*
X108570095Y-67668933D01*
X108665333Y-67621314D01*
X108855809Y-67621314D01*
X108951047Y-67668933D01*
X108998666Y-67764171D01*
X108998666Y-67859409D01*
X108522476Y-67954647D01*
X109427238Y-68287980D02*
X109427238Y-67621314D01*
X109427238Y-67811790D02*
X109474857Y-67716552D01*
X109522476Y-67668933D01*
X109617714Y-67621314D01*
X109712952Y-67621314D01*
X110427238Y-68240361D02*
X110332000Y-68287980D01*
X110141523Y-68287980D01*
X110046285Y-68240361D01*
X109998666Y-68145123D01*
X109998666Y-67764171D01*
X110046285Y-67668933D01*
X110141523Y-67621314D01*
X110332000Y-67621314D01*
X110427238Y-67668933D01*
X110474857Y-67764171D01*
X110474857Y-67859409D01*
X109998666Y-67954647D01*
X110903428Y-68287980D02*
X110903428Y-67621314D01*
X110903428Y-67716552D02*
X110951047Y-67668933D01*
X111046285Y-67621314D01*
X111189142Y-67621314D01*
X111284380Y-67668933D01*
X111332000Y-67764171D01*
X111332000Y-68287980D01*
X111332000Y-67764171D02*
X111379619Y-67668933D01*
X111474857Y-67621314D01*
X111617714Y-67621314D01*
X111712952Y-67668933D01*
X111760571Y-67764171D01*
X111760571Y-68287980D01*
X112141523Y-67621314D02*
X112379619Y-68287980D01*
X112617714Y-67621314D02*
X112379619Y-68287980D01*
X112284380Y-68526076D01*
X112236761Y-68573695D01*
X112141523Y-68621314D01*
X113760571Y-68287980D02*
X113760571Y-67287980D01*
X114141523Y-67287980D01*
X114236761Y-67335600D01*
X114284380Y-67383219D01*
X114332000Y-67478457D01*
X114332000Y-67621314D01*
X114284380Y-67716552D01*
X114236761Y-67764171D01*
X114141523Y-67811790D01*
X113760571Y-67811790D01*
X115189142Y-68287980D02*
X115189142Y-67764171D01*
X115141523Y-67668933D01*
X115046285Y-67621314D01*
X114855809Y-67621314D01*
X114760571Y-67668933D01*
X115189142Y-68240361D02*
X115093904Y-68287980D01*
X114855809Y-68287980D01*
X114760571Y-68240361D01*
X114712952Y-68145123D01*
X114712952Y-68049885D01*
X114760571Y-67954647D01*
X114855809Y-67907028D01*
X115093904Y-67907028D01*
X115189142Y-67859409D01*
X115665333Y-68287980D02*
X115665333Y-67621314D01*
X115665333Y-67811790D02*
X115712952Y-67716552D01*
X115760571Y-67668933D01*
X115855809Y-67621314D01*
X115951047Y-67621314D01*
X116284380Y-68287980D02*
X116284380Y-67287980D01*
X116379619Y-67907028D02*
X116665333Y-68287980D01*
X116665333Y-67621314D02*
X116284380Y-68002266D01*
X117474857Y-68240361D02*
X117379619Y-68287980D01*
X117189142Y-68287980D01*
X117093904Y-68240361D01*
X117046285Y-68145123D01*
X117046285Y-67764171D01*
X117093904Y-67668933D01*
X117189142Y-67621314D01*
X117379619Y-67621314D01*
X117474857Y-67668933D01*
X117522476Y-67764171D01*
X117522476Y-67859409D01*
X117046285Y-67954647D01*
X117951047Y-68287980D02*
X117951047Y-67621314D01*
X117951047Y-67811790D02*
X117998666Y-67716552D01*
X118046285Y-67668933D01*
X118141523Y-67621314D01*
X118236761Y-67621314D01*
X119617714Y-68668933D02*
X119570095Y-68621314D01*
X119474857Y-68478457D01*
X119427238Y-68383219D01*
X119379619Y-68240361D01*
X119332000Y-68002266D01*
X119332000Y-67811790D01*
X119379619Y-67573695D01*
X119427238Y-67430838D01*
X119474857Y-67335600D01*
X119570095Y-67192742D01*
X119617714Y-67145123D01*
X120427238Y-68240361D02*
X120332000Y-68287980D01*
X120141523Y-68287980D01*
X120046285Y-68240361D01*
X119998666Y-68192742D01*
X119951047Y-68097504D01*
X119951047Y-67811790D01*
X119998666Y-67716552D01*
X120046285Y-67668933D01*
X120141523Y-67621314D01*
X120332000Y-67621314D01*
X120427238Y-67668933D01*
X120760571Y-68668933D02*
X120808190Y-68621314D01*
X120903428Y-68478457D01*
X120951047Y-68383219D01*
X120998666Y-68240361D01*
X121046285Y-68002266D01*
X121046285Y-67811790D01*
X120998666Y-67573695D01*
X120951047Y-67430838D01*
X120903428Y-67335600D01*
X120808190Y-67192742D01*
X120760571Y-67145123D01*
X121474857Y-67383219D02*
X121522476Y-67335600D01*
X121617714Y-67287980D01*
X121855809Y-67287980D01*
X121951047Y-67335600D01*
X121998666Y-67383219D01*
X122046285Y-67478457D01*
X122046285Y-67573695D01*
X121998666Y-67716552D01*
X121427238Y-68287980D01*
X122046285Y-68287980D01*
X122665333Y-67287980D02*
X122760571Y-67287980D01*
X122855809Y-67335600D01*
X122903428Y-67383219D01*
X122951047Y-67478457D01*
X122998666Y-67668933D01*
X122998666Y-67907028D01*
X122951047Y-68097504D01*
X122903428Y-68192742D01*
X122855809Y-68240361D01*
X122760571Y-68287980D01*
X122665333Y-68287980D01*
X122570095Y-68240361D01*
X122522476Y-68192742D01*
X122474857Y-68097504D01*
X122427238Y-67907028D01*
X122427238Y-67668933D01*
X122474857Y-67478457D01*
X122522476Y-67383219D01*
X122570095Y-67335600D01*
X122665333Y-67287980D01*
X123379619Y-67383219D02*
X123427238Y-67335600D01*
X123522476Y-67287980D01*
X123760571Y-67287980D01*
X123855809Y-67335600D01*
X123903428Y-67383219D01*
X123951047Y-67478457D01*
X123951047Y-67573695D01*
X123903428Y-67716552D01*
X123332000Y-68287980D01*
X123951047Y-68287980D01*
X124332000Y-67383219D02*
X124379619Y-67335600D01*
X124474857Y-67287980D01*
X124712952Y-67287980D01*
X124808190Y-67335600D01*
X124855809Y-67383219D01*
X124903428Y-67478457D01*
X124903428Y-67573695D01*
X124855809Y-67716552D01*
X124284380Y-68287980D01*
X124903428Y-68287980D01*
%TO.C,SW2*%
X110172666Y-63904761D02*
X110315523Y-63952380D01*
X110553619Y-63952380D01*
X110648857Y-63904761D01*
X110696476Y-63857142D01*
X110744095Y-63761904D01*
X110744095Y-63666666D01*
X110696476Y-63571428D01*
X110648857Y-63523809D01*
X110553619Y-63476190D01*
X110363142Y-63428571D01*
X110267904Y-63380952D01*
X110220285Y-63333333D01*
X110172666Y-63238095D01*
X110172666Y-63142857D01*
X110220285Y-63047619D01*
X110267904Y-63000000D01*
X110363142Y-62952380D01*
X110601238Y-62952380D01*
X110744095Y-63000000D01*
X111077428Y-62952380D02*
X111315523Y-63952380D01*
X111506000Y-63238095D01*
X111696476Y-63952380D01*
X111934571Y-62952380D01*
X112267904Y-63047619D02*
X112315523Y-63000000D01*
X112410761Y-62952380D01*
X112648857Y-62952380D01*
X112744095Y-63000000D01*
X112791714Y-63047619D01*
X112839333Y-63142857D01*
X112839333Y-63238095D01*
X112791714Y-63380952D01*
X112220285Y-63952380D01*
X112839333Y-63952380D01*
%TO.C,FID1*%
X68778571Y-71874071D02*
X68445238Y-71874071D01*
X68445238Y-72397880D02*
X68445238Y-71397880D01*
X68921428Y-71397880D01*
X69302380Y-72397880D02*
X69302380Y-71397880D01*
X69778571Y-72397880D02*
X69778571Y-71397880D01*
X70016666Y-71397880D01*
X70159523Y-71445500D01*
X70254761Y-71540738D01*
X70302380Y-71635976D01*
X70350000Y-71826452D01*
X70350000Y-71969309D01*
X70302380Y-72159785D01*
X70254761Y-72255023D01*
X70159523Y-72350261D01*
X70016666Y-72397880D01*
X69778571Y-72397880D01*
X71302380Y-72397880D02*
X70730952Y-72397880D01*
X71016666Y-72397880D02*
X71016666Y-71397880D01*
X70921428Y-71540738D01*
X70826190Y-71635976D01*
X70730952Y-71683595D01*
%TO.C,J1*%
X89836666Y-67922380D02*
X89836666Y-68636666D01*
X89789047Y-68779523D01*
X89693809Y-68874761D01*
X89550952Y-68922380D01*
X89455714Y-68922380D01*
X90836666Y-68922380D02*
X90265238Y-68922380D01*
X90550952Y-68922380D02*
X90550952Y-67922380D01*
X90455714Y-68065238D01*
X90360476Y-68160476D01*
X90265238Y-68208095D01*
%TO.C,J7*%
X131492666Y-66762380D02*
X131492666Y-67476666D01*
X131445047Y-67619523D01*
X131349809Y-67714761D01*
X131206952Y-67762380D01*
X131111714Y-67762380D01*
X131873619Y-66762380D02*
X132540285Y-66762380D01*
X132111714Y-67762380D01*
%TO.C,J6*%
X69618266Y-66762380D02*
X69618266Y-67476666D01*
X69570647Y-67619523D01*
X69475409Y-67714761D01*
X69332552Y-67762380D01*
X69237314Y-67762380D01*
X70523028Y-66762380D02*
X70332552Y-66762380D01*
X70237314Y-66810000D01*
X70189695Y-66857619D01*
X70094457Y-67000476D01*
X70046838Y-67190952D01*
X70046838Y-67571904D01*
X70094457Y-67667142D01*
X70142076Y-67714761D01*
X70237314Y-67762380D01*
X70427790Y-67762380D01*
X70523028Y-67714761D01*
X70570647Y-67667142D01*
X70618266Y-67571904D01*
X70618266Y-67333809D01*
X70570647Y-67238571D01*
X70523028Y-67190952D01*
X70427790Y-67143333D01*
X70237314Y-67143333D01*
X70142076Y-67190952D01*
X70094457Y-67238571D01*
X70046838Y-67333809D01*
%TO.C,J3*%
X102371380Y-72469333D02*
X103085666Y-72469333D01*
X103228523Y-72516952D01*
X103323761Y-72612190D01*
X103371380Y-72755047D01*
X103371380Y-72850285D01*
X102371380Y-72088380D02*
X102371380Y-71469333D01*
X102752333Y-71802666D01*
X102752333Y-71659809D01*
X102799952Y-71564571D01*
X102847571Y-71516952D01*
X102942809Y-71469333D01*
X103180904Y-71469333D01*
X103276142Y-71516952D01*
X103323761Y-71564571D01*
X103371380Y-71659809D01*
X103371380Y-71945523D01*
X103323761Y-72040761D01*
X103276142Y-72088380D01*
%TO.C,SW1*%
X97726666Y-67714761D02*
X97869523Y-67762380D01*
X98107619Y-67762380D01*
X98202857Y-67714761D01*
X98250476Y-67667142D01*
X98298095Y-67571904D01*
X98298095Y-67476666D01*
X98250476Y-67381428D01*
X98202857Y-67333809D01*
X98107619Y-67286190D01*
X97917142Y-67238571D01*
X97821904Y-67190952D01*
X97774285Y-67143333D01*
X97726666Y-67048095D01*
X97726666Y-66952857D01*
X97774285Y-66857619D01*
X97821904Y-66810000D01*
X97917142Y-66762380D01*
X98155238Y-66762380D01*
X98298095Y-66810000D01*
X98631428Y-66762380D02*
X98869523Y-67762380D01*
X99060000Y-67048095D01*
X99250476Y-67762380D01*
X99488571Y-66762380D01*
X100393333Y-67762380D02*
X99821904Y-67762380D01*
X100107619Y-67762380D02*
X100107619Y-66762380D01*
X100012380Y-66905238D01*
X99917142Y-67000476D01*
X99821904Y-67048095D01*
%TO.C,J5*%
X131820380Y-72469333D02*
X132534666Y-72469333D01*
X132677523Y-72516952D01*
X132772761Y-72612190D01*
X132820380Y-72755047D01*
X132820380Y-72850285D01*
X131820380Y-71516952D02*
X131820380Y-71993142D01*
X132296571Y-72040761D01*
X132248952Y-71993142D01*
X132201333Y-71897904D01*
X132201333Y-71659809D01*
X132248952Y-71564571D01*
X132296571Y-71516952D01*
X132391809Y-71469333D01*
X132629904Y-71469333D01*
X132725142Y-71516952D01*
X132772761Y-71564571D01*
X132820380Y-71659809D01*
X132820380Y-71897904D01*
X132772761Y-71993142D01*
X132725142Y-72040761D01*
%TO.C,SW3*%
X121602666Y-63904761D02*
X121745523Y-63952380D01*
X121983619Y-63952380D01*
X122078857Y-63904761D01*
X122126476Y-63857142D01*
X122174095Y-63761904D01*
X122174095Y-63666666D01*
X122126476Y-63571428D01*
X122078857Y-63523809D01*
X121983619Y-63476190D01*
X121793142Y-63428571D01*
X121697904Y-63380952D01*
X121650285Y-63333333D01*
X121602666Y-63238095D01*
X121602666Y-63142857D01*
X121650285Y-63047619D01*
X121697904Y-63000000D01*
X121793142Y-62952380D01*
X122031238Y-62952380D01*
X122174095Y-63000000D01*
X122507428Y-62952380D02*
X122745523Y-63952380D01*
X122936000Y-63238095D01*
X123126476Y-63952380D01*
X123364571Y-62952380D01*
X123650285Y-62952380D02*
X124269333Y-62952380D01*
X123936000Y-63333333D01*
X124078857Y-63333333D01*
X124174095Y-63380952D01*
X124221714Y-63428571D01*
X124269333Y-63523809D01*
X124269333Y-63761904D01*
X124221714Y-63857142D01*
X124174095Y-63904761D01*
X124078857Y-63952380D01*
X123793142Y-63952380D01*
X123697904Y-63904761D01*
X123650285Y-63857142D01*
%TO.C,J4*%
X117088380Y-72469333D02*
X117802666Y-72469333D01*
X117945523Y-72516952D01*
X118040761Y-72612190D01*
X118088380Y-72755047D01*
X118088380Y-72850285D01*
X117421714Y-71564571D02*
X118088380Y-71564571D01*
X117040761Y-71802666D02*
X117755047Y-72040761D01*
X117755047Y-71421714D01*
D11*
%TO.C,SW2*%
X108406000Y-60982000D02*
X114606000Y-60982000D01*
X105406000Y-60982000D02*
X106606000Y-60982000D01*
X117606000Y-60982000D02*
X117606000Y-57382000D01*
X105406000Y-57382000D02*
X105406000Y-60982000D01*
X110506000Y-57382000D02*
X110406000Y-57382000D01*
X112606000Y-57382000D02*
X110506000Y-57382000D01*
X117606000Y-57382000D02*
X114506000Y-57382000D01*
X116506000Y-60982000D02*
X117606000Y-60982000D01*
X108606000Y-57382000D02*
X105406000Y-57382000D01*
D12*
%TO.C,J1*%
X76320000Y-64065000D02*
X76320000Y-60705000D01*
X76320000Y-58464000D02*
X76320000Y-56134000D01*
X77840000Y-66085000D02*
X78610000Y-66085000D01*
X91320000Y-58165000D02*
X91320000Y-56134000D01*
X91320000Y-64065000D02*
X91320000Y-60705000D01*
X89030000Y-66085000D02*
X89800000Y-66085000D01*
D13*
X79670000Y-67335000D02*
G75*
G03*
X79670000Y-67335000I-100000J0D01*
G01*
D11*
%TO.C,J7*%
X134366000Y-62653700D02*
X134366000Y-61129700D01*
X129286000Y-57192700D02*
X129286000Y-55922700D01*
X129286000Y-62653700D02*
X129286000Y-61129700D01*
X134366000Y-57192700D02*
X134366000Y-55922700D01*
%TO.C,J6*%
X67564000Y-57192700D02*
X67564000Y-55922700D01*
X67564000Y-62653700D02*
X67564000Y-61129700D01*
X72644000Y-62653700D02*
X72644000Y-61129700D01*
X72644000Y-57192700D02*
X72644000Y-55922700D01*
%TO.C,J3*%
X100589000Y-70806000D02*
X101919000Y-70806000D01*
X99319000Y-70806000D02*
X99319000Y-73466000D01*
X96719000Y-70806000D02*
X96719000Y-73466000D01*
X99319000Y-73466000D02*
X96719000Y-73466000D01*
X99319000Y-70806000D02*
X96719000Y-70806000D01*
X101919000Y-70806000D02*
X101919000Y-72136000D01*
%TO.C,SW1*%
X104394000Y-56164000D02*
X102362000Y-56164000D01*
X104394000Y-64292000D02*
X104394000Y-56164000D01*
X94234000Y-64292000D02*
X94234000Y-56164000D01*
X94234000Y-56164000D02*
X96266000Y-56164000D01*
%TO.C,J5*%
X131368000Y-70806000D02*
X131368000Y-72136000D01*
X128768000Y-70806000D02*
X121088000Y-70806000D01*
X128768000Y-70806000D02*
X128768000Y-73466000D01*
X128768000Y-73466000D02*
X121088000Y-73466000D01*
X130038000Y-70806000D02*
X131368000Y-70806000D01*
X121088000Y-70806000D02*
X121088000Y-73466000D01*
%TO.C,SW3*%
X127236000Y-60982000D02*
X127236000Y-57382000D01*
X124436000Y-57382000D02*
X123936000Y-57382000D01*
X118636000Y-57382000D02*
X118636000Y-60982000D01*
X126436000Y-60982000D02*
X127236000Y-60982000D01*
X124486000Y-60982000D02*
X123986000Y-60982000D01*
X121936000Y-57382000D02*
X121436000Y-57382000D01*
X118636000Y-57382000D02*
X119436000Y-57382000D01*
X118636000Y-60982000D02*
X119436000Y-60982000D01*
X121986000Y-60982000D02*
X121486000Y-60982000D01*
X127236000Y-57382000D02*
X126436000Y-57382000D01*
%TO.C,J4*%
X116636000Y-70806000D02*
X116636000Y-72136000D01*
X115306000Y-70806000D02*
X116636000Y-70806000D01*
X114036000Y-70806000D02*
X106356000Y-70806000D01*
X114036000Y-73466000D02*
X106356000Y-73466000D01*
X114036000Y-70806000D02*
X114036000Y-73466000D01*
X106356000Y-70806000D02*
X106356000Y-73466000D01*
%TD*%
M02*
