M48
; DRILL file {KiCad (6.0.2)} date Fri Mar  4 15:26:27 2022
; FORMAT={2:4/ absolute / inch / keep zeros}
; #@! TF.CreationDate,2022-03-04T15:26:27-05:00
; #@! TF.GenerationSoftware,Kicad,Pcbnew,(6.0.2)
; #@! TF.FileFunction,Plated,1,4,PTH
FMAT,2
INCH
; #@! TA.AperFunction,Plated,PTH,ViaDrill
T1C0.0120
; #@! TA.AperFunction,Plated,PTH,ComponentDrill
T2C0.0177
; #@! TA.AperFunction,Plated,PTH,ComponentDrill
T3C0.0354
; #@! TA.AperFunction,Plated,PTH,ComponentDrill
T4C0.0394
; #@! TA.AperFunction,Plated,PTH,ComponentDrill
T5C0.0531
; #@! TA.AperFunction,Plated,PTH,ComponentDrill
T6C0.0620
%
G90
G05
T1
X031520Y-025570
X031630Y-028320
X031670Y-027840
X031700Y-029220
X032100Y-028320
X032110Y-025570
X032180Y-029220
X032250Y-027850
X032570Y-028320
X032650Y-029220
X032700Y-025580
X032730Y-027840
X033040Y-028320
X033120Y-029220
X033290Y-025580
X033350Y-027830
X033510Y-028320
X033590Y-029220
X034130Y-027760
X034150Y-028340
X034230Y-029220
X034300Y-028030
X034480Y-026483
X034640Y-028340
X047800Y-022850
X048400Y-022850
X049380Y-023650
X049400Y-026500
T3
X041931Y-023300
X045081Y-023300
T4
X038602Y-028400
X039602Y-028400
X042396Y-028400
X043396Y-028400
X044396Y-028400
X045396Y-028400
X048196Y-028400
X049196Y-028400
X050196Y-028400
X051196Y-028400
T5
X029909Y-023400
X030146Y-025722
X035854Y-025722
X036091Y-023400
T6
X026600Y-023267
X026600Y-025407
X028600Y-023267
X028600Y-025407
X050900Y-023267
X050900Y-025407
X052900Y-023267
X052900Y-025407
T2
G00X030864Y-030663
M15
G01X030864Y-030337
M16
G05
G00X035136Y-030663
M15
G01X035136Y-030337
M16
G05
T0
M30
